<svg xmlns="http://www.w3.org/2000/svg" width="35" height="29" viewBox="0 0 35 29" fill="none">
    <path fill-rule="evenodd" clip-rule="evenodd" d="M14.4501 16.6833L1.25011 10.0166C0.796502 9.70586 0.52533 9.19141 0.52533 8.64159C0.52533 8.09176 0.796502 7.57731 1.25011 7.26659L14.4501 0.599921C15.1395 0.259575 15.898 0.0827728 16.6668 0.0832529C17.3671 0.0870292 18.0591 0.234518 18.7001 0.516588L33.3501 7.18325C33.8806 7.47679 34.2099 8.03527 34.2099 8.64159C34.2099 9.2479 33.8806 9.80639 33.3501 10.0999L18.7001 16.7666C18.0591 17.0487 17.3671 17.1961 16.6668 17.1999C15.898 17.2004 15.1395 17.0236 14.4501 16.6833ZM16.75 2.51658C16.3743 2.51397 16.0033 2.5996 15.6667 2.76658L4.00004 8.58324L15.6667 14.3832C16.0033 14.5502 16.3743 14.6359 16.75 14.6332C17.0954 14.637 17.4372 14.563 17.75 14.4166L30.6 8.58324L17.75 2.73324C17.4372 2.58685 17.0954 2.5128 16.75 2.51658Z" fill="#39D048"/>
    <path d="M32.8167 14.0831L18.0667 20.2331C17.1646 20.6597 16.1189 20.6597 15.2167 20.2331L2.15008 14.0998C1.7422 13.9122 1.26524 13.9565 0.898865 14.216C0.53249 14.4754 0.332361 14.9106 0.373865 15.3576C0.415368 15.8046 0.692199 16.1956 1.10008 16.3831L14.1334 22.4165C14.9421 22.8165 15.8312 23.0274 16.7334 23.0331C17.5398 23.0351 18.3366 22.8587 19.0667 22.5165L33.7667 16.3998C34.0827 16.2747 34.3341 16.0263 34.463 15.7118C34.5919 15.3974 34.5872 15.044 34.4501 14.7331C34.1691 14.1124 33.4474 13.8252 32.8167 14.0831Z" fill="#39D048"/>
    <path d="M32.8167 19.2164L18.0667 25.3664C17.1646 25.793 16.1188 25.793 15.2167 25.3664L2.15007 19.2497C1.7421 19.0408 1.25252 19.0719 0.874288 19.3308C0.496059 19.5897 0.289857 20.0348 0.336958 20.4908C0.384058 20.9467 0.676907 21.3403 1.10007 21.5164L14.1334 27.5497C14.9342 27.9552 15.8192 28.1665 16.7167 28.1664C17.5064 28.1621 18.2855 27.9858 19.0001 27.6497L33.7001 21.533C34.016 21.4079 34.2674 21.1595 34.3963 20.8451C34.5252 20.5306 34.5206 20.1773 34.3834 19.8664C34.0992 19.2863 33.4281 19.0079 32.8167 19.2164Z" fill="#39D048"/>
</svg>