<svg xmlns="http://www.w3.org/2000/svg" width="40" height="40" viewBox="0 0 40 40" fill="none">
    <path fill-rule="evenodd" clip-rule="evenodd" d="M29.4334 23.4504L32.9334 24.617C33.904 24.9521 34.5627 25.857 34.5834 26.8837V33.5504C34.5834 35.2717 33.188 36.667 31.4667 36.667C31.1319 36.6674 30.7994 36.611 30.4834 36.5004L28.8167 35.9337C28.3402 36.4109 27.691 36.6754 27.0167 36.667H24.4834C23.3044 36.734 22.289 35.8445 22.2 34.667V30.317C22.1109 29.0751 21.0433 28.1336 19.8 28.2004C18.5567 28.1336 17.4891 29.0751 17.4 30.317V34.667C17.3111 35.8445 16.2956 36.734 15.1167 36.667H12.5834C11.909 36.6754 11.2599 36.4109 10.7834 35.9337L9.1167 36.5004C8.80067 36.611 8.4682 36.6674 8.13336 36.667C6.4313 36.6765 5.03641 35.3187 5.00003 33.617V26.9504C4.99489 25.8948 5.66648 24.9545 6.6667 24.617L10.1667 23.4504V18.1504C10.2855 12.2758 13.3639 6.85887 18.35 3.75037C18.7832 3.4748 19.2867 3.33012 19.8 3.3337C20.3138 3.32722 20.8181 3.47214 21.25 3.75037C26.2362 6.85887 29.3146 12.2758 29.4334 18.1504V23.4504ZM8.30002 34.1337L8.83336 33.9504L8.88336 26.5337L7.51669 26.9837V33.5504C7.51669 33.8909 7.79278 34.167 8.13336 34.167L8.30002 34.1337ZM26.7667 33.9504H24.8V30.317C24.6839 27.6406 22.479 25.5312 19.8 25.5337C17.1211 25.5312 14.9161 27.6406 14.8 30.317V34.0004H12.8334V18.1504C12.9711 13.1883 15.5872 8.62578 19.8 6.00037C24.0241 8.62508 26.6476 13.1958 26.7834 18.167L26.7667 33.9504ZM31.5 34.117C31.8406 34.117 32.1167 33.8409 32.1167 33.5004V26.9504L30.7667 26.5004V33.9337L31.3 34.117H31.5ZM19.8 12.4504C18.3917 12.4504 17.25 13.592 17.25 15.0004C17.25 16.4087 18.3917 17.5504 19.8 17.5504C21.2084 17.5504 22.35 16.4087 22.35 15.0004C22.3409 13.5958 21.2046 12.4595 19.8 12.4504ZM18.55 20.417C18.559 19.7304 19.1134 19.176 19.8 19.167C20.4866 19.176 21.0411 19.7304 21.05 20.417V23.3337C21.05 24.0241 20.4904 24.5837 19.8 24.5837C19.1097 24.5837 18.55 24.0241 18.55 23.3337V20.417Z" fill="#39D048"/>
</svg>