<svg width="29" height="28" viewBox="0 0 29 28" fill="none" xmlns="http://www.w3.org/2000/svg">
<path d="M14.5324 6.78125C18.6105 6.78125 21.9766 10.0312 21.9766 13.9688C21.9766 17.9688 18.6105 21.1562 14.5324 21.1562C10.3895 21.1562 7.08817 17.9688 7.08817 13.9688C7.08817 10.0312 10.3895 6.78125 14.5324 6.78125ZM14.5324 18.6562C17.1864 18.6562 19.3225 16.5938 19.3225 13.9688C19.3225 11.4063 17.1864 9.34375 14.5324 9.34375C11.8136 9.34375 9.67746 11.4063 9.67746 13.9688C9.67746 16.5938 11.8783 18.6562 14.5324 18.6562ZM23.9833 6.53125C23.9833 7.46875 23.2065 8.21875 22.2355 8.21875C21.2645 8.21875 20.4877 7.46875 20.4877 6.53125C20.4877 5.59375 21.2645 4.84375 22.2355 4.84375C23.2065 4.84375 23.9833 5.59375 23.9833 6.53125ZM28.9029 8.21875C29.0324 10.5312 29.0324 17.4688 28.9029 19.7812C28.7734 22.0313 28.2556 23.9688 26.5725 25.6563C24.8895 27.2813 22.8181 27.7813 20.4877 27.9063C18.0926 28.0313 10.9074 28.0313 8.51228 27.9063C6.18192 27.7813 4.17522 27.2813 2.42746 25.6563C0.74442 23.9688 0.226562 22.0313 0.0970982 19.7812C-0.0323661 17.4688 -0.0323661 10.5312 0.0970982 8.21875C0.226562 5.96875 0.74442 3.96875 2.42746 2.34375C4.17522 0.71875 6.18192 0.21875 8.51228 0.09375C10.9074 -0.03125 18.0926 -0.03125 20.4877 0.09375C22.8181 0.21875 24.8895 0.71875 26.5725 2.34375C28.2556 3.96875 28.7734 5.96875 28.9029 8.21875ZM25.7958 22.2188C26.5725 20.4062 26.3783 16.0312 26.3783 13.9688C26.3783 11.9688 26.5725 7.59375 25.7958 5.71875C25.2779 4.53125 24.3069 3.53125 23.077 3.09375C21.135 2.34375 16.6038 2.53125 14.5324 2.53125C12.3962 2.53125 7.86496 2.34375 5.98772 3.09375C4.69308 3.59375 3.7221 4.53125 3.20424 5.71875C2.42746 7.59375 2.62165 11.9688 2.62165 13.9688C2.62165 16.0312 2.42746 20.4062 3.20424 22.2188C3.7221 23.4688 4.69308 24.4063 5.98772 24.9063C7.86496 25.6563 12.3962 25.4688 14.5324 25.4688C16.6038 25.4688 21.135 25.6563 23.077 24.9063C24.3069 24.4063 25.3426 23.4688 25.7958 22.2188Z" fill="#39D048"/>
</svg>
