<svg xmlns="http://www.w3.org/2000/svg" width="189" height="41" viewBox="0 0 189 41" fill="none">
    <path d="M30.2338 18.3032C29.7227 18.8174 29.3313 19.438 29.0875 20.1207C28.8437 20.8035 28.7535 21.5316 28.8232 22.2532L28.7989 22.2289C28.8707 23.0784 28.756 23.9331 28.4633 24.7337C28.1705 25.5343 27.7066 26.2613 27.1039 26.8641C26.5011 27.4668 25.7741 27.9308 24.9734 28.2234C24.1729 28.5162 23.3181 28.6308 22.4687 28.5591L22.493 28.5834C21.477 28.4888 20.4565 28.7099 19.5707 29.2165C18.6849 29.7232 17.9769 30.4907 17.5433 31.4144C17.1098 32.3382 16.9716 33.3731 17.1477 34.3783C17.3239 35.3834 17.8058 36.3097 18.5277 37.031C19.2496 37.7522 20.1763 38.2332 21.1815 38.4084C22.1869 38.5837 23.2216 38.4445 24.145 38.0102C25.0684 37.5756 25.8352 36.8671 26.341 35.9808C26.8469 35.0945 27.0671 34.0739 26.9716 33.0579L26.9972 33.0822C26.9255 32.2329 27.04 31.378 27.3328 30.5774C27.6255 29.7769 28.0896 29.0498 28.6923 28.447C29.2951 27.8444 30.0221 27.3803 30.8226 27.0877C31.6232 26.7949 32.478 26.6803 33.3274 26.752L33.3018 26.7277C34.1317 26.8023 34.9672 26.6662 35.7306 26.3321C36.4939 25.9979 37.1606 25.4764 37.6688 24.816C38.1769 24.1556 38.5103 23.3775 38.6376 22.554C38.765 21.7305 38.6825 20.8882 38.3977 20.1049C38.1128 19.3218 37.6349 18.6232 37.0082 18.074C36.3815 17.5247 35.6263 17.1425 34.8126 16.9629C33.9989 16.7832 33.1529 16.8118 32.3532 17.0461C31.5535 17.2805 30.826 17.7128 30.2379 18.3032H30.2338Z" fill="white"/>
    <path d="M20.2854 25.4034L20.2598 25.3792C20.9817 25.4519 21.7108 25.3633 22.3943 25.1197C23.0778 24.8762 23.6987 24.4838 24.2119 23.971C24.7251 23.4581 25.1181 22.8375 25.362 22.1542C25.6061 21.4709 25.6952 20.742 25.6231 20.0199L25.6487 20.0442C25.577 19.1948 25.6916 18.34 25.9842 17.5394C26.277 16.7389 26.7411 16.0119 27.3437 15.409C27.9465 14.8064 28.6736 14.3423 29.4741 14.0497C30.2747 13.7569 31.1294 13.6423 31.9789 13.714L31.9533 13.6897C32.9694 13.7852 33.9902 13.5648 34.8765 13.0588C35.7629 12.5527 36.4714 11.7855 36.9057 10.8619C37.3399 9.93834 37.4787 8.90328 37.3031 7.8979C37.1275 6.89253 36.646 5.96582 35.9243 5.24414C35.2027 4.52248 34.2759 4.04099 33.2706 3.86538C32.2652 3.68975 31.2302 3.82853 30.3065 4.2628C29.3829 4.69705 28.6158 5.40566 28.1097 6.29196C27.6036 7.17824 27.3832 8.19907 27.4787 9.21519L27.4545 9.18956C27.5263 10.039 27.412 10.8939 27.1193 11.6946C26.8267 12.4953 26.3626 13.2224 25.76 13.8253C25.1572 14.428 24.43 14.892 23.6294 15.1846C22.8286 15.4773 21.9737 15.5916 21.1243 15.5198L21.1485 15.5454C20.4266 15.4727 19.6975 15.5613 19.014 15.8048C18.3306 16.0483 17.7097 16.4407 17.1964 16.9536C16.6831 17.4664 16.2903 18.087 16.0462 18.7704C15.8023 19.4537 15.7131 20.1826 15.7853 20.9046L15.761 20.8803C15.8325 21.7297 15.7177 22.5844 15.4249 23.3849C15.132 24.1853 14.6681 24.9123 14.0654 25.515C13.4627 26.1176 12.7358 26.5816 11.9353 26.8745C11.1348 27.1672 10.2801 27.282 9.43079 27.2105L9.45507 27.2348C8.43894 27.1393 7.41812 27.3597 6.53182 27.8658C5.64554 28.3719 4.93693 29.139 4.50268 30.0626C4.06841 30.9863 3.92962 32.0213 4.10524 33.0266C4.28087 34.032 4.76236 34.9587 5.48402 35.6804C6.2057 36.4021 7.13241 36.8836 8.13778 37.0591C9.14316 37.2347 10.1782 37.096 11.1018 36.6617C12.0254 36.2275 12.7926 35.5189 13.2986 34.6327C13.8048 33.7462 14.0251 32.7255 13.9296 31.7094L13.9552 31.7336C13.8835 30.8842 13.9981 30.0294 14.2909 29.2288C14.5835 28.4283 15.0476 27.7013 15.6503 27.0985C16.2531 26.4958 16.9801 26.0317 17.7806 25.7391C18.5813 25.4463 19.436 25.3317 20.2854 25.4034Z" fill="white"/>
    <path d="M11.2474 22.6969C11.7585 22.1829 12.1499 21.5623 12.3935 20.8795C12.6371 20.1967 12.7269 19.4685 12.6567 18.747L12.6823 18.7712C12.6105 17.9216 12.7251 17.0665 13.018 16.2657C13.3109 15.465 13.7752 14.7378 14.3782 14.135C14.9813 13.5322 15.7086 13.0683 16.5095 12.7757C17.3104 12.4832 18.1656 12.3689 19.0152 12.4411L18.9896 12.4168C20.0053 12.5119 21.0258 12.2915 21.9116 11.7854C22.7975 11.2794 23.5056 10.5124 23.9398 9.58913C24.3737 8.66582 24.5124 7.63113 24.3368 6.62613C24.1612 5.62113 23.6798 4.69477 22.9584 3.97337C22.237 3.25196 21.3106 2.77063 20.3056 2.59502C19.3007 2.4194 18.2659 2.55806 17.3427 2.99205C16.4193 3.42605 15.6524 4.13428 15.1464 5.02016C14.6403 5.90603 14.4198 6.92644 14.515 7.94222L14.4907 7.91794C14.5625 8.76734 14.4478 9.62216 14.1551 10.4227C13.8623 11.2233 13.3984 11.9503 12.7956 12.5531C12.1929 13.1558 11.4659 13.6198 10.6653 13.9125C9.86472 14.2053 9.00992 14.3199 8.16052 14.2481L8.18479 14.2724C7.35484 14.198 6.51952 14.3343 5.75626 14.6686C4.99299 15.0029 4.32646 15.5246 3.81844 16.1851C3.31042 16.8455 2.97735 17.6236 2.85007 18.447C2.72281 19.2706 2.80546 20.1129 3.09038 20.8959C3.37529 21.679 3.85326 22.3775 4.47998 22.9266C5.10671 23.4759 5.86191 23.8579 6.67561 24.0376C7.4893 24.217 8.33516 24.1883 9.13482 23.9541C9.93447 23.7197 10.662 23.2873 11.2501 22.6969H11.2474Z" fill="white"/>
    <path d="M53.0215 9.24622H57.0267V28.7371H53.0215V9.24622Z" fill="white"/>
    <path d="M59.2951 22.063C59.2896 20.6624 59.6998 19.2914 60.4739 18.1241C61.248 16.9568 62.3511 16.0454 63.6436 15.5056C64.9361 14.9656 66.3596 14.8214 67.7341 15.0913C69.1085 15.3611 70.372 16.0327 71.3644 17.0212C72.3568 18.0096 73.0336 19.2704 73.3089 20.6438C73.5843 22.0172 73.4458 23.4414 72.9111 24.736C72.3764 26.0305 71.4695 27.1374 70.3053 27.9161C69.1409 28.6949 67.7718 29.1106 66.3711 29.1106C65.4414 29.1213 64.5188 28.9464 63.6573 28.5963C62.7959 28.2462 62.0129 27.7279 61.3541 27.0719C60.6952 26.4157 60.1738 25.6347 59.8204 24.7747C59.4668 23.9147 59.2882 22.9928 59.2951 22.063ZM69.4418 22.063C69.425 21.4592 69.2307 20.8738 68.8832 20.3799C68.5355 19.886 68.05 19.5054 67.4874 19.286C66.9247 19.0665 66.3098 19.0177 65.7196 19.1458C65.1293 19.2739 64.5899 19.573 64.1687 20.006C63.7477 20.4389 63.4634 20.9864 63.3519 21.5801C63.2402 22.1736 63.3059 22.7869 63.541 23.3433C63.776 23.8998 64.1698 24.3745 64.6731 24.7082C65.1765 25.042 65.7672 25.22 66.3711 25.22C66.7847 25.2311 67.1961 25.1562 67.5795 25.0003C67.9628 24.8444 68.3096 24.6109 68.5981 24.3143C68.8866 24.0176 69.1106 23.6644 69.2557 23.277C69.4009 22.8895 69.4643 22.4762 69.4418 22.063Z" fill="white"/>
    <path d="M89.4102 15.3877V28.0642C89.4102 32.5496 85.912 34.4457 82.3612 34.4457C81.1111 34.5393 79.8592 34.2867 78.743 33.7158C77.6269 33.1449 76.6895 32.2776 76.0337 31.2091L79.451 29.2335C79.7267 29.7904 80.1659 30.2499 80.7098 30.5505C81.2538 30.8509 81.8766 30.9782 82.4947 30.9151C82.8899 30.9699 83.2923 30.9351 83.6722 30.8133C84.0519 30.6915 84.3996 30.4859 84.6893 30.2117C84.9789 29.9374 85.2032 29.6016 85.3456 29.2289C85.4879 28.8563 85.5445 28.4564 85.5115 28.0588V26.8384C85.0425 27.4122 84.4456 27.8682 83.7685 28.1696C83.0913 28.471 82.3531 28.6095 81.6128 28.574C79.8513 28.5184 78.1805 27.7797 76.9541 26.5139C75.7277 25.2483 75.042 23.555 75.042 21.7927C75.042 20.0304 75.7277 18.3371 76.9541 17.0715C78.1805 15.8057 79.8513 15.067 81.6128 15.0114C82.3531 14.9759 83.0913 15.1144 83.7685 15.4159C84.4456 15.7173 85.0425 16.1732 85.5115 16.747V15.385L89.4102 15.3877ZM85.5128 21.7947C85.5398 21.1493 85.3729 20.5105 85.0337 19.9607C84.6945 19.4107 84.1985 18.975 83.6096 18.7095C83.0207 18.4438 82.3658 18.3606 81.7292 18.4704C81.0925 18.5801 80.5033 18.8779 80.0372 19.3255C79.5713 19.773 79.2499 20.3496 79.1144 20.9813C78.979 21.6129 79.0357 22.2708 79.2773 22.8699C79.5188 23.4691 79.9342 23.9824 80.4699 24.3435C81.0055 24.7047 81.637 24.8973 82.283 24.8964C82.7039 24.9258 83.1261 24.8668 83.5228 24.723C83.9194 24.5793 84.2815 24.3539 84.5857 24.0618C84.8899 23.7696 85.1297 23.4169 85.2894 23.0264C85.4491 22.636 85.5253 22.2164 85.5128 21.7947Z" fill="white"/>
    <path d="M91.6789 22.063C91.6734 20.6624 92.0835 19.2914 92.8577 18.1241C93.6318 16.9568 94.7349 16.0454 96.0274 15.5056C97.3198 14.9656 98.7434 14.8214 100.118 15.0913C101.492 15.3611 102.756 16.0327 103.748 17.0212C104.741 18.0096 105.417 19.2704 105.693 20.6438C105.968 22.0172 105.83 23.4414 105.295 24.736C104.76 26.0305 103.853 27.1374 102.689 27.9161C101.525 28.6949 100.156 29.1106 98.7549 29.1106C97.8251 29.1213 96.9025 28.9464 96.0411 28.5963C95.1797 28.2462 94.3967 27.7279 93.7379 27.0719C93.079 26.4157 92.5576 25.6347 92.2042 24.7747C91.8506 23.9147 91.672 22.9928 91.6789 22.063ZM101.826 22.063C101.809 21.4592 101.614 20.8738 101.267 20.3799C100.919 19.886 100.434 19.5054 99.8712 19.286C99.3084 19.0665 98.6935 19.0177 98.1034 19.1458C97.5131 19.2739 96.9737 19.573 96.5525 20.006C96.1315 20.4389 95.8472 20.9864 95.7355 21.5801C95.6239 22.1736 95.6897 22.7869 95.9247 23.3433C96.1598 23.8998 96.5536 24.3745 97.0569 24.7082C97.5603 25.042 98.1508 25.22 98.7549 25.22C99.1685 25.2311 99.5799 25.1562 99.9632 25.0003C100.347 24.8444 100.693 24.6109 100.982 24.3143C101.27 24.0176 101.494 23.6644 101.639 23.277C101.785 22.8895 101.848 22.4762 101.826 22.063Z" fill="white"/>
    <path d="M107.698 11.8099C107.698 11.3346 107.839 10.87 108.103 10.4748C108.367 10.0796 108.743 9.77156 109.182 9.58967C109.621 9.40778 110.104 9.36019 110.57 9.45292C111.036 9.54564 111.465 9.77452 111.801 10.1106C112.137 10.4467 112.366 10.8749 112.458 11.3411C112.551 11.8072 112.503 12.2904 112.322 12.7295C112.14 13.1687 111.832 13.544 111.436 13.8081C111.041 14.0721 110.577 14.2131 110.101 14.2131C109.466 14.2067 108.858 13.9516 108.409 13.5022C107.96 13.0529 107.705 12.4453 107.698 11.8099ZM108.103 15.3877H112.109V28.7385H108.097L108.103 15.3877Z" fill="white"/>
    <path d="M129.404 22.0631C129.45 22.9455 129.321 23.8283 129.025 24.6608C128.729 25.4932 128.272 26.2589 127.678 26.9139C127.085 27.5688 126.369 28.1001 125.57 28.4772C124.771 28.8541 123.905 29.0695 123.022 29.1108C122.28 29.1512 121.538 29.0261 120.85 28.7444C120.162 28.4625 119.546 28.0312 119.045 27.4817V34.0776H115.04V15.3877H119.045V16.6419C119.546 16.0927 120.163 15.6617 120.85 15.3803C121.538 15.0987 122.28 14.9737 123.022 15.0141C123.905 15.0553 124.771 15.2705 125.57 15.6476C126.37 16.0246 127.086 16.556 127.679 17.2111C128.272 17.8662 128.73 18.6322 129.026 19.465C129.322 20.2976 129.45 21.1806 129.404 22.0631ZM125.398 22.0631C125.383 21.4383 125.183 20.832 124.825 20.32C124.466 19.8081 123.964 19.4132 123.383 19.185C122.801 18.9567 122.165 18.905 121.554 19.0367C120.942 19.1682 120.384 19.477 119.947 19.9244C119.511 20.372 119.216 20.9382 119.1 21.5524C118.984 22.1666 119.052 22.8012 119.295 23.3772C119.537 23.9532 119.945 24.4446 120.466 24.7902C120.986 25.1357 121.597 25.3201 122.223 25.3199C122.652 25.3391 123.08 25.2672 123.479 25.1092C123.879 24.9512 124.24 24.7105 124.54 24.403C124.84 24.0954 125.071 23.7281 125.219 23.3249C125.367 22.9216 125.428 22.4916 125.398 22.0631Z" fill="white"/>
    <path d="M141.764 24.7318C141.764 27.8025 139.095 29.1107 136.212 29.1107C135.046 29.2161 133.877 28.9699 132.853 28.4033C131.83 27.8369 131 26.9765 130.471 25.9334L133.941 23.9578C134.081 24.4399 134.383 24.8594 134.795 25.146C135.207 25.4327 135.706 25.5693 136.206 25.5329C137.166 25.5329 137.648 25.2389 137.648 24.7062C137.648 23.2363 131.079 24.0117 131.079 19.3928C131.079 16.4813 133.536 15.014 136.313 15.014C137.357 14.981 138.39 15.2286 139.305 15.7309C140.221 16.2334 140.986 16.9722 141.518 17.8703L138.101 19.7125C137.951 19.3628 137.702 19.0649 137.383 18.856C137.065 18.6471 136.693 18.5365 136.313 18.5378C135.618 18.5378 135.191 18.8076 135.191 19.285C135.196 20.8075 141.764 19.792 141.764 24.7318Z" fill="white"/>
    <path d="M156.393 15.3876V28.7384H152.388V27.4829C151.926 28.0369 151.339 28.4734 150.676 28.7566C150.012 29.0398 149.292 29.1616 148.572 29.112C145.875 29.112 143.582 27.1903 143.582 23.5828V15.3876H147.587V22.9962C147.554 23.3142 147.59 23.6357 147.694 23.9382C147.796 24.2408 147.965 24.5173 148.186 24.7483C148.407 24.9793 148.676 25.1593 148.974 25.276C149.27 25.3926 149.59 25.4431 149.91 25.4236C151.378 25.4236 152.392 24.57 152.392 22.6739V15.3916L156.393 15.3876Z" fill="white"/>
    <path d="M179.36 20.5405V28.7371H175.355V20.887C175.355 19.5519 174.714 18.6983 173.433 18.6983C172.098 18.6983 171.349 19.6329 171.349 21.208V28.7371H167.345V20.887C167.345 19.5519 166.705 18.6983 165.422 18.6983C164.087 18.6983 163.34 19.6329 163.34 21.208V28.7371H159.335V15.3862H163.34V16.6134C163.756 16.069 164.3 15.6372 164.925 15.3576C165.551 15.0779 166.236 14.9594 166.918 15.0127C167.603 14.9791 168.285 15.1238 168.899 15.4325C169.511 15.741 170.033 16.2033 170.415 16.7739C170.859 16.1769 171.446 15.7022 172.123 15.3942C172.8 15.0862 173.545 14.9549 174.287 15.0127C177.352 15.014 179.36 17.2027 179.36 20.5405Z" fill="white"/>
    <path d="M182.748 15.3053C184.389 15.3053 185.72 13.9746 185.72 12.3331C185.72 10.6916 184.389 9.36084 182.748 9.36084C181.106 9.36084 179.775 10.6916 179.775 12.3331C179.775 13.9746 181.106 15.3053 182.748 15.3053Z" fill="white"/>
</svg>
