<svg xmlns="http://www.w3.org/2000/svg" width="189" height="43" viewBox="0 0 189 43" fill="none">
    <g clip-path="url(#clip0_380_192)">
        <path d="M183.712 8.23896L188.199 12.7568C188.356 12.8816 188.472 13.0501 188.532 13.2409C188.623 14.3529 187.782 14.4137 186.922 14.4758C186.55 14.5027 186.174 14.5299 185.87 14.6426C184.361 15.051 183.015 15.9135 182.014 17.1132C181.012 18.3129 180.405 19.7917 180.273 21.3487C180.176 21.5286 180.03 21.6766 179.85 21.775C179.672 21.8735 179.469 21.918 179.264 21.9034C179.028 21.8825 178.806 21.779 178.639 21.6109L177.166 20.1281C177.177 20.2296 177.177 20.3301 177.177 20.4109V21.3891C177.177 21.4509 177.179 21.5104 177.171 21.5699C177.162 21.6365 177.139 21.703 177.086 21.7722V21.863C177.086 21.9094 177.092 21.9525 177.097 21.9962C177.108 22.0858 177.12 22.178 177.086 22.3068C177.054 22.4269 177.051 22.5669 177.047 22.692C177.046 22.7662 177.043 22.8353 177.036 22.8916C177.025 22.9697 177.025 23.0532 177.019 23.1365C177.012 23.2145 176.999 23.2925 176.965 23.3656C176.918 23.4679 176.902 23.5656 176.897 23.6649C176.894 23.7125 176.894 23.7603 176.894 23.8093L176.834 24.1219L174.545 35.0333L174.363 35.8501L174.293 37.0401L173.284 42.1932L173.123 43H91.5098L91.1164 42.6067L91.0458 42.9496H82.3127L77.452 38.0587L77.9158 35.8501H75.1729L73.4687 34.1257C71.3536 35.6658 68.7935 36.4731 66.1776 36.425C63.3656 36.5356 60.6243 35.5275 58.5538 33.6215L55.9016 30.9491L55.3268 33.6315C55.2562 34.0147 55.1654 34.3779 55.0646 34.7308L54.9738 35.0636L54.8226 35.5476C54.8101 35.5896 54.7932 35.6302 54.7722 35.6686C54.622 36.1132 54.4435 36.5477 54.2377 36.9695C54.243 36.9858 54.243 37.0035 54.2377 37.0199C54.2112 37.0758 54.1809 37.1296 54.1468 37.1812C53.9946 37.4826 53.8264 37.7754 53.6427 38.0587C53.6086 38.1101 53.5783 38.1641 53.5519 38.22L53.441 38.341C53.1945 38.6945 52.925 39.0313 52.6342 39.3494C52.5544 39.4292 52.4747 39.5041 52.3936 39.5776C52.3108 39.6529 52.2268 39.7267 52.14 39.8032L51.9183 40.0149C51.7784 40.1311 51.6353 40.2433 51.4892 40.3513C51.3687 40.4404 51.2462 40.5266 51.1216 40.61C49.0433 41.8414 46.6459 42.4275 44.2339 42.294C40.9061 42.294 38.2437 41.3259 36.5596 39.6318L31.8199 34.8618C29.9268 35.9332 27.7831 36.483 25.608 36.4552C22.8045 36.5419 20.0797 35.5201 18.0245 33.6114L15.3723 30.939L14.5151 35.0636L14.3437 35.8804H5.41897L0.538086 30.9591L0.790196 29.7692L6.15512 4.00349L6.31644 3.19675H15.2714L15.5034 3.41864V3.19675H75.8385L76.0604 3.41864V3.19675H84.7935L89.6743 8.11795L89.4323 9.29782L89.1701 10.5886H91.6811L92.0745 10.982C93.1793 10.3344 94.4343 9.9868 95.7149 9.97352C96.6566 9.95492 97.5918 10.1338 98.4602 10.4985C99.3287 10.8633 100.111 11.4058 100.757 12.0912L100.626 11.9399L102.996 14.33C104.438 11.6173 107.675 9.97352 112.072 9.97352C115.48 9.97352 117.992 10.8407 119.514 12.4139L121.228 14.1384L121.803 11.3651L121.974 10.5584H130.717L133.219 13.0694L133.572 11.3752L133.744 10.5685H150.948L151.411 11.0324C152.576 10.3448 153.911 9.99554 155.264 10.0239C156.078 9.99216 156.888 10.1412 157.639 10.4603C158.388 10.7793 159.058 11.2606 159.599 11.8694C159.571 11.8377 159.545 11.806 159.518 11.7748C159.469 11.717 159.421 11.6605 159.369 11.6083L160.245 12.4845C161.009 11.6941 161.927 11.0681 162.941 10.645C163.955 10.2219 165.045 10.0105 166.144 10.0239C166.728 9.98804 167.31 10.0377 167.876 10.1699L166.921 9.20708C166.791 9.06793 166.703 8.89478 166.668 8.70773C166.632 8.52068 166.65 8.32728 166.719 8.15008C166.789 7.97281 166.907 7.81894 167.061 7.70618C167.215 7.59342 167.396 7.52639 167.587 7.51291H168.353C168.56 7.49321 168.765 7.46293 168.968 7.42212C170.04 7.19685 171.048 6.73621 171.92 6.07343C172.793 5.41072 173.507 4.56249 174.011 3.59006C174.055 3.51484 174.095 3.43747 174.131 3.35813V3.30772C174.478 2.56081 174.689 1.7585 174.757 0.937847C174.774 0.682843 174.889 0.444089 175.076 0.270025C175.263 0.0958985 175.509 -0.000612578 175.765 2.92602e-06H175.846C175.999 0.0145288 176.147 0.0638923 176.278 0.144277C176.409 0.224723 176.52 0.334037 176.603 0.463909C177.328 1.16983 181.362 5.27413 181.362 5.27413C181.698 5.63556 181.673 6.10476 181.648 6.57949C181.632 6.87303 181.615 7.16872 181.684 7.44231C181.868 7.47524 182.054 7.50017 182.239 7.51703C182.417 7.53309 182.596 7.54183 182.774 7.54314C182.983 7.5475 183.186 7.61681 183.354 7.74151C183.521 7.86615 183.647 8.04003 183.712 8.23896Z" fill="black"/>
        <path d="M46.6946 11.5568H53.068L49.4981 28.4885C48.8427 31.6953 47.5921 33.5308 45.6963 34.8317C43.7787 35.9444 41.5768 36.4703 39.3633 36.3443C35.148 36.3443 31.1041 34.5796 30.7008 30.2937H37.1144C37.3161 31.3021 38.2439 31.8769 39.6557 31.8769C41.5617 31.8769 42.439 30.7273 42.8324 28.9222L43.2155 27.0565H43.0743C42.5116 27.6752 41.829 28.1729 41.068 28.5196C40.3069 28.8663 39.4834 29.0547 38.6473 29.0734C34.9363 29.0734 31.9915 26.1187 32.052 21.7924C32.1328 16.7503 35.4202 11.0223 40.9365 11.0223C41.9818 10.9519 43.0254 11.1823 43.944 11.6863C44.8626 12.1901 45.6176 12.9466 46.1198 13.8661H46.2308L46.6946 11.5568ZM41.2188 24.3438C43.6694 24.3438 45.0307 21.5203 45.071 19.0899C45.071 17.4663 44.4357 15.8023 42.5601 15.8023C39.9986 15.8023 38.6977 18.6562 38.6574 21.1067C38.6574 22.7606 39.2927 24.3438 41.1684 24.3438M112.768 24.8884C112.768 25.9674 111.84 26.4011 110.619 26.4011C108.603 26.4011 107.927 25.3926 107.917 23.9808H101.574C101.463 29.2449 106.163 30.5457 110.338 30.5457C115.672 30.5457 119.131 28.2364 119.202 23.6279C119.202 19.947 116.065 18.8277 112.98 18.1116C110.61 17.5672 109.571 17.1738 109.581 16.2763C109.592 15.3788 110.651 15.0158 111.689 15.0158C112.99 15.0158 113.877 15.4796 113.968 16.6696H120.13C120.059 12.2728 116.095 10.982 112.062 10.982C107.161 10.982 103.339 13.2106 103.278 17.4259C103.278 20.7437 105.517 21.9639 108.895 22.8312C111.063 23.406 112.788 23.5875 112.768 24.8884ZM159.892 14.2897H159.781C159.507 13.2966 158.901 12.4273 158.064 11.8256C157.228 11.224 156.211 10.9263 155.182 10.982C152.44 10.982 150.766 12.3434 149.183 14.4006H149.072L149.657 11.5568H143.242L139.4 29.9306H146.107L148.124 20.0176C148.587 17.8596 149.687 16.3469 151.351 16.3469C153.015 16.3469 153.237 17.678 152.894 19.3017L150.675 29.9306H157.381L159.399 20.0176C159.862 17.7184 160.962 16.3469 162.625 16.3469C164.289 16.3469 164.511 17.6075 164.168 19.3017L161.95 29.9306H168.655L171.056 19.0092C172.064 14.4006 170.522 10.9416 166.095 10.9416C164.863 10.9366 163.65 11.2404 162.567 11.8253C161.483 12.4102 160.564 13.2575 159.892 14.2897ZM1.76855 29.9306H8.69655L14.0514 4.16492H7.13347L1.76855 29.9306ZM22.6231 11.0122C27.3023 11.0122 31.7697 13.5736 31.6991 19.3722C31.6386 25.7153 27.3225 30.4651 20.7272 30.4651C16.1892 30.4651 11.6513 27.944 11.732 22.1757C11.8429 15.9839 16.0985 11.0122 22.6231 11.0122ZM20.9189 25.9674C23.8737 25.9674 24.9526 21.6815 24.9526 19.1604C24.9526 17.3554 24.398 15.5906 22.4517 15.5906C19.5272 15.5906 18.5289 20.1286 18.5289 22.4682C18.5289 24.3439 19.0533 25.9674 20.9592 25.9674M16.3607 4.16492L15.3522 9.31806H73.5293L74.5378 4.16492H16.3607ZM63.1524 11.0122C67.8316 11.0122 72.299 13.5736 72.2284 19.3722C72.1679 25.7153 67.8417 30.4651 61.2465 30.4651C56.7085 30.4651 52.1705 27.944 52.2613 22.1757C52.4024 15.9839 56.658 11.0122 63.1524 11.0122ZM61.4784 25.9674C64.4332 25.9674 65.5122 21.6815 65.5122 19.1604C65.5122 17.3554 64.9475 15.5906 63.0012 15.5906C60.0868 15.5906 59.0783 20.1286 59.0783 22.4682C59.0783 24.3439 59.6027 25.9674 61.5188 25.9674M76.9177 4.16492L75.9092 9.31806H82.6053L83.6138 4.16492H76.9177ZM71.5528 29.9306H78.2589L82.101 11.5568H75.3545L71.5528 29.9306ZM92.9519 30.5457C91.8846 30.6215 90.8172 30.3985 89.8695 29.9015C88.9219 29.4045 88.1315 28.6533 87.587 27.7323H87.476L85.4592 37.03H78.6723L84.1179 11.5568H90.4913L89.9871 14.0073C90.6527 13.1021 91.5148 12.3596 92.5086 11.8356C93.5025 11.3116 94.6022 11.0198 95.7252 10.982C99.7589 10.982 102.129 14.441 102.058 18.9386C101.967 24.5959 99.0328 30.5457 92.9116 30.5457H92.9519ZM92.6897 16.1856C90.0981 16.1856 88.5047 19.5033 88.4644 22.0547C88.4644 23.8296 89.0896 25.8061 91.2174 25.8061C93.9906 25.8061 95.1301 22.1354 95.1603 19.6848C95.1603 18.0209 94.6764 16.1856 92.6897 16.1856ZM131.465 27.0364H131.575L130.991 29.9508H137.363L141.206 11.5769H134.51L132.372 21.8429C131.939 23.9707 130.627 25.0901 128.974 25.0901C127.32 25.0901 126.956 23.5371 127.289 21.9135L129.458 11.5769H122.762L120.391 22.9219C119.383 27.8633 121.682 30.5256 125.535 30.5256C126.744 30.5138 127.93 30.1833 128.971 29.5671C130.011 28.9509 130.872 28.071 131.465 27.0162V27.0364ZM167.435 37.1209L168.444 31.9676H88.9181L87.9097 37.1209H167.435Z" fill="white"/>
        <path d="M174.645 16.599C174.58 16.5939 174.515 16.5758 174.456 16.5455C174.396 16.5154 174.343 16.4738 174.3 16.4232C174.257 16.3726 174.225 16.314 174.204 16.2507C174.184 16.1874 174.176 16.1207 174.182 16.0544C174.266 15.1563 174.159 14.2505 173.869 13.3965C173.579 12.5426 173.111 11.7594 172.496 11.0987C171.882 10.438 171.135 9.91445 170.305 9.56239C169.474 9.21034 168.579 9.03771 167.677 9.05584C167.544 9.05584 167.416 9.00272 167.321 8.90815C167.227 8.8136 167.173 8.68534 167.173 8.55161C167.173 8.41788 167.227 8.28964 167.321 8.19508C167.416 8.10052 167.544 8.04739 167.677 8.04739C167.919 8.06302 168.162 8.06302 168.404 8.04739C170.195 7.85657 171.863 7.04732 173.122 5.7589C174.382 4.47048 175.152 2.78348 175.301 0.988291C175.312 0.861674 175.369 0.743568 175.462 0.657565C175.556 0.571563 175.678 0.524009 175.805 0.524417C175.872 0.529507 175.936 0.547661 175.995 0.577827C176.055 0.607993 176.107 0.649577 176.15 0.700189C176.194 0.750802 176.226 0.809439 176.247 0.872731C176.267 0.936022 176.275 1.00271 176.269 1.06897C176.186 1.96623 176.292 2.87111 176.581 3.72443C176.872 4.57773 177.338 5.36026 177.951 6.02084C178.565 6.68142 179.31 7.20518 180.138 7.55788C180.968 7.91057 181.863 8.08425 182.764 8.06756C182.897 8.06756 183.026 8.12069 183.12 8.21525C183.215 8.30981 183.268 8.43806 183.268 8.57179C183.268 8.70552 183.215 8.83377 183.12 8.92833C183.026 9.02289 182.897 9.076 182.764 9.076C180.848 9.10765 179.011 9.84568 177.606 11.1485C176.201 12.4513 175.326 14.2271 175.15 16.1351C175.14 16.2617 175.083 16.3799 174.989 16.4659C174.896 16.5519 174.773 16.5994 174.645 16.599Z" fill="white"/>
    </g>
    <defs>
        <clipPath id="clip0_380_192">
            <rect width="188.125" height="43" fill="white" transform="translate(0.538086)"/>
        </clipPath>
    </defs>
</svg>