<svg xmlns="http://www.w3.org/2000/svg" width="189" height="43" viewBox="0 0 189 43" fill="none">
    <g clip-path="url(#clip0_1030_2128)">
        <path d="M183.711 8.23896L188.198 12.7568C188.355 12.8816 188.471 13.0501 188.531 13.2409C188.623 14.3529 187.781 14.4137 186.921 14.4758C186.549 14.5027 186.174 14.5299 185.87 14.6426C184.36 15.051 183.014 15.9135 182.014 17.1132C181.012 18.3129 180.404 19.7917 180.272 21.3487C180.175 21.5286 180.029 21.6766 179.85 21.775C179.671 21.8735 179.468 21.918 179.264 21.9034C179.027 21.8825 178.806 21.779 178.638 21.6109L177.165 20.1281C177.176 20.2296 177.176 20.3301 177.176 20.4109V21.3891C177.176 21.4509 177.178 21.5104 177.171 21.5699C177.161 21.6365 177.139 21.703 177.086 21.7722V21.863C177.086 21.9094 177.091 21.9525 177.097 21.9962C177.107 22.0858 177.119 22.178 177.086 22.3068C177.054 22.4269 177.05 22.5669 177.046 22.692C177.045 22.7662 177.043 22.8353 177.035 22.8916C177.025 22.9697 177.025 23.0532 177.018 23.1365C177.012 23.2145 176.999 23.2925 176.964 23.3656C176.917 23.4679 176.901 23.5656 176.897 23.6649C176.893 23.7125 176.893 23.7603 176.893 23.8093L176.833 24.1219L174.545 35.0333L174.363 35.8501L174.292 37.0401L173.284 42.1932L173.122 43H91.5092L91.1158 42.6067L91.0452 42.9496H82.3121L77.4514 38.0587L77.9152 35.8501H75.1723L73.4681 34.1257C71.353 35.6658 68.7929 36.4731 66.177 36.425C63.365 36.5356 60.6236 35.5275 58.5532 33.6215L55.901 30.9491L55.3262 33.6315C55.2556 34.0147 55.1648 34.3779 55.064 34.7308L54.9732 35.0636L54.822 35.5476C54.8095 35.5896 54.7926 35.6302 54.7716 35.6686C54.6214 36.1132 54.4429 36.5477 54.2371 36.9695C54.2424 36.9858 54.2424 37.0035 54.2371 37.0199C54.2106 37.0758 54.1803 37.1296 54.1462 37.1812C53.994 37.4826 53.8258 37.7754 53.6421 38.0587C53.608 38.1101 53.5777 38.1641 53.5513 38.22L53.4404 38.341C53.1939 38.6945 52.9244 39.0313 52.6336 39.3494C52.5538 39.4292 52.4741 39.5041 52.393 39.5776C52.3102 39.6529 52.2262 39.7267 52.1394 39.8032L51.9176 40.0149C51.7778 40.1311 51.6347 40.2433 51.4886 40.3513C51.3681 40.4404 51.2456 40.5266 51.121 40.61C49.0427 41.8414 46.6453 42.4275 44.2333 42.294C40.9055 42.294 38.2431 41.3259 36.559 39.6318L31.8193 34.8618C29.9262 35.9332 27.7825 36.483 25.6073 36.4552C22.8038 36.5419 20.079 35.5201 18.0239 33.6114L15.3717 30.939L14.5145 35.0636L14.3431 35.8804H5.41836L0.537476 30.9591L0.789586 29.7692L6.15451 4.00349L6.31583 3.19675H15.2708L15.5028 3.41864V3.19675H75.8379L76.0598 3.41864V3.19675H84.7929L89.6737 8.11795L89.4317 9.29782L89.1695 10.5886H91.6805L92.0738 10.982C93.1787 10.3344 94.4337 9.9868 95.7143 9.97352C96.656 9.95492 97.5912 10.1338 98.4596 10.4985C99.3281 10.8633 100.11 11.4058 100.757 12.0912L100.625 11.9399L102.995 14.33C104.437 11.6173 107.674 9.97352 112.071 9.97352C115.48 9.97352 117.991 10.8407 119.513 12.4139L121.228 14.1384L121.803 11.3651L121.974 10.5584H130.717L133.218 13.0694L133.571 11.3752L133.743 10.5685H150.947L151.411 11.0324C152.576 10.3448 153.91 9.99554 155.263 10.0239C156.077 9.99216 156.888 10.1412 157.638 10.4603C158.387 10.7793 159.057 11.2606 159.599 11.8694C159.571 11.8377 159.544 11.806 159.517 11.7748C159.469 11.717 159.42 11.6605 159.369 11.6083L160.245 12.4845C161.008 11.6941 161.926 11.0681 162.94 10.645C163.955 10.2219 165.045 10.0105 166.143 10.0239C166.727 9.98804 167.31 10.0377 167.875 10.1699L166.921 9.20708C166.791 9.06793 166.702 8.89478 166.667 8.70773C166.631 8.52068 166.65 8.32728 166.719 8.15008C166.788 7.97281 166.907 7.81894 167.06 7.70618C167.214 7.59342 167.396 7.52639 167.586 7.51291H168.353C168.559 7.49321 168.764 7.46293 168.967 7.42212C170.039 7.19685 171.048 6.73621 171.919 6.07343C172.792 5.41072 173.506 4.56249 174.01 3.59006C174.054 3.51484 174.094 3.43747 174.131 3.35813V3.30772C174.478 2.56081 174.689 1.7585 174.756 0.937847C174.773 0.682843 174.889 0.444089 175.076 0.270025C175.263 0.0958985 175.509 -0.000612578 175.765 2.92602e-06H175.845C175.998 0.0145288 176.146 0.0638923 176.277 0.144277C176.409 0.224723 176.519 0.334037 176.602 0.463909C177.328 1.16983 181.361 5.27413 181.361 5.27413C181.698 5.63556 181.673 6.10476 181.647 6.57949C181.631 6.87303 181.615 7.16872 181.684 7.44231C181.867 7.47524 182.053 7.50017 182.238 7.51703C182.417 7.53309 182.595 7.54183 182.774 7.54314C182.982 7.5475 183.185 7.61681 183.353 7.74151C183.521 7.86615 183.647 8.04003 183.711 8.23896Z" fill="#1D1D21"/>
        <path d="M46.694 11.5568H53.0674L49.4975 28.4885C48.8421 31.6953 47.5915 33.5308 45.6957 34.8317C43.7781 35.9444 41.5761 36.4703 39.3627 36.3443C35.1474 36.3443 31.1035 34.5796 30.7002 30.2937H37.1138C37.3155 31.3021 38.2433 31.8769 39.6551 31.8769C41.5611 31.8769 42.4384 30.7273 42.8317 28.9222L43.2149 27.0565H43.0737C42.511 27.6752 41.8283 28.1729 41.0674 28.5196C40.3063 28.8663 39.4828 29.0547 38.6467 29.0734C34.9357 29.0734 31.9909 26.1187 32.0514 21.7924C32.1322 16.7503 35.4196 11.0223 40.9359 11.0223C41.9812 10.9519 43.0248 11.1823 43.9434 11.6863C44.862 12.1901 45.617 12.9466 46.1192 13.8661H46.2301L46.694 11.5568ZM41.2182 24.3438C43.6687 24.3438 45.0301 21.5203 45.0704 19.0899C45.0704 17.4663 44.4351 15.8023 42.5595 15.8023C39.9979 15.8023 38.6971 18.6562 38.6568 21.1067C38.6568 22.7606 39.2921 24.3438 41.1678 24.3438M112.768 24.8884C112.768 25.9674 111.839 26.4011 110.619 26.4011C108.602 26.4011 107.927 25.3926 107.917 23.9808H101.574C101.463 29.2449 106.162 30.5457 110.337 30.5457C115.671 30.5457 119.131 28.2364 119.202 23.6279C119.202 19.947 116.065 18.8277 112.979 18.1116C110.609 17.5672 109.571 17.1738 109.58 16.2763C109.591 15.3788 110.65 15.0158 111.688 15.0158C112.989 15.0158 113.876 15.4796 113.967 16.6696H120.129C120.058 12.2728 116.095 10.982 112.061 10.982C107.16 10.982 103.338 13.2106 103.278 17.4259C103.278 20.7437 105.516 21.9639 108.894 22.8312C111.063 23.406 112.787 23.5875 112.768 24.8884ZM159.891 14.2897H159.781C159.507 13.2966 158.9 12.4273 158.064 11.8256C157.228 11.224 156.211 10.9263 155.182 10.982C152.439 10.982 150.766 12.3434 149.182 14.4006H149.072L149.656 11.5568H143.242L139.4 29.9306H146.107L148.123 20.0176C148.587 17.8596 149.686 16.3469 151.351 16.3469C153.015 16.3469 153.236 17.678 152.893 19.3017L150.674 29.9306H157.38L159.398 20.0176C159.861 17.7184 160.961 16.3469 162.624 16.3469C164.288 16.3469 164.511 17.6075 164.168 19.3017L161.949 29.9306H168.655L171.055 19.0092C172.064 14.4006 170.521 10.9416 166.094 10.9416C164.862 10.9366 163.65 11.2404 162.566 11.8253C161.482 12.4102 160.563 13.2575 159.891 14.2897ZM1.76794 29.9306H8.69594L14.0508 4.16492H7.13286L1.76794 29.9306ZM22.6225 11.0122C27.3017 11.0122 31.7691 13.5736 31.6985 19.3722C31.638 25.7153 27.3219 30.4651 20.7266 30.4651C16.1886 30.4651 11.6507 27.944 11.7314 22.1757C11.8423 15.9839 16.0979 11.0122 22.6225 11.0122ZM20.9183 25.9674C23.8731 25.9674 24.952 21.6815 24.952 19.1604C24.952 17.3554 24.3974 15.5906 22.451 15.5906C19.5266 15.5906 18.5283 20.1286 18.5283 22.4682C18.5283 24.3439 19.0526 25.9674 20.9586 25.9674M16.3601 4.16492L15.3516 9.31806H73.5287L74.5372 4.16492H16.3601ZM63.1518 11.0122C67.831 11.0122 72.2984 13.5736 72.2278 19.3722C72.1673 25.7153 67.8411 30.4651 61.2458 30.4651C56.7078 30.4651 52.1698 27.944 52.2607 22.1757C52.4018 15.9839 56.6574 11.0122 63.1518 11.0122ZM61.4778 25.9674C64.4326 25.9674 65.5116 21.6815 65.5116 19.1604C65.5116 17.3554 64.9469 15.5906 63.0006 15.5906C60.0861 15.5906 59.0777 20.1286 59.0777 22.4682C59.0777 24.3439 59.6021 25.9674 61.5182 25.9674M76.9171 4.16492L75.9086 9.31806H82.6047L83.6132 4.16492H76.9171ZM71.5522 29.9306H78.2583L82.1004 11.5568H75.3539L71.5522 29.9306ZM92.9513 30.5457C91.884 30.6215 90.8166 30.3985 89.8689 29.9015C88.9213 29.4045 88.1309 28.6533 87.5864 27.7323H87.4754L85.4586 37.03H78.6717L84.1173 11.5568H90.4907L89.9865 14.0073C90.652 13.1021 91.5142 12.3596 92.508 11.8356C93.5019 11.3116 94.6016 11.0198 95.7245 10.982C99.7583 10.982 102.128 14.441 102.058 18.9386C101.967 24.5959 99.0322 30.5457 92.9109 30.5457H92.9513ZM92.6891 16.1856C90.0975 16.1856 88.5041 19.5033 88.4638 22.0547C88.4638 23.8296 89.089 25.8061 91.2167 25.8061C93.99 25.8061 95.1295 22.1354 95.1597 19.6848C95.1597 18.0209 94.6758 16.1856 92.6891 16.1856ZM131.464 27.0364H131.575L130.99 29.9508H137.363L141.206 11.5769H134.51L132.371 21.8429C131.938 23.9707 130.627 25.0901 128.973 25.0901C127.319 25.0901 126.956 23.5371 127.289 21.9135L129.457 11.5769H122.761L120.391 22.9219C119.382 27.8633 121.682 30.5256 125.534 30.5256C126.744 30.5138 127.929 30.1833 128.97 29.5671C130.011 28.9509 130.872 28.071 131.464 27.0162V27.0364ZM167.435 37.1209L168.443 31.9676H88.9175L87.9091 37.1209H167.435Z" fill="white"/>
        <path d="M174.644 16.599C174.579 16.5939 174.514 16.5758 174.455 16.5455C174.395 16.5154 174.342 16.4738 174.299 16.4232C174.256 16.3726 174.224 16.314 174.204 16.2507C174.183 16.1874 174.176 16.1207 174.181 16.0544C174.265 15.1563 174.159 14.2505 173.868 13.3965C173.578 12.5426 173.11 11.7594 172.496 11.0987C171.882 10.438 171.135 9.91445 170.305 9.56239C169.474 9.21034 168.578 9.03771 167.676 9.05584C167.543 9.05584 167.415 9.00272 167.32 8.90815C167.226 8.8136 167.172 8.68534 167.172 8.55161C167.172 8.41788 167.226 8.28964 167.32 8.19508C167.415 8.10052 167.543 8.04739 167.676 8.04739C167.918 8.06302 168.161 8.06302 168.403 8.04739C170.194 7.85657 171.862 7.04732 173.121 5.7589C174.381 4.47048 175.151 2.78348 175.3 0.988291C175.311 0.861674 175.368 0.743568 175.461 0.657565C175.555 0.571563 175.678 0.524009 175.804 0.524417C175.871 0.529507 175.936 0.547661 175.995 0.577827C176.054 0.607993 176.106 0.649577 176.149 0.700189C176.194 0.750802 176.226 0.809439 176.246 0.872731C176.267 0.936022 176.274 1.00271 176.269 1.06897C176.185 1.96623 176.291 2.87111 176.581 3.72443C176.871 4.57773 177.337 5.36026 177.95 6.02084C178.564 6.68142 179.309 7.20518 180.138 7.55788C180.968 7.91057 181.862 8.08425 182.763 8.06756C182.896 8.06756 183.025 8.12069 183.12 8.21525C183.214 8.30981 183.267 8.43806 183.267 8.57179C183.267 8.70552 183.214 8.83377 183.12 8.92833C183.025 9.02289 182.896 9.076 182.763 9.076C180.847 9.10765 179.01 9.84568 177.605 11.1485C176.2 12.4513 175.325 14.2271 175.15 16.1351C175.139 16.2617 175.082 16.3799 174.988 16.4659C174.895 16.5519 174.772 16.5994 174.644 16.599Z" fill="white"/>
    </g>
    <defs>
        <clipPath id="clip0_1030_2128">
            <rect width="188.125" height="43" fill="white" transform="translate(0.537476)"/>
        </clipPath>
    </defs>
</svg>