<svg xmlns="http://www.w3.org/2000/svg" width="189" height="41" viewBox="0 0 189 41" fill="none">
    <path d="M30.2336 18.3032C29.7225 18.8174 29.3311 19.438 29.0873 20.1207C28.8435 20.8035 28.7532 21.5316 28.823 22.2532L28.7987 22.2289C28.8704 23.0784 28.7558 23.9331 28.463 24.7337C28.1703 25.5343 27.7063 26.2613 27.1037 26.8641C26.5009 27.4668 25.7738 27.9308 24.9732 28.2234C24.1727 28.5162 23.3178 28.6308 22.4685 28.5591L22.4928 28.5834C21.4768 28.4888 20.4563 28.7099 19.5704 29.2165C18.6847 29.7232 17.9767 30.4907 17.5431 31.4144C17.1095 32.3382 16.9713 33.3731 17.1474 34.3783C17.3237 35.3834 17.8055 36.3097 18.5274 37.031C19.2493 37.7522 20.1761 38.2332 21.1813 38.4084C22.1866 38.5837 23.2214 38.4445 24.1448 38.0102C25.0681 37.5756 25.8349 36.8671 26.3408 35.9808C26.8466 35.0945 27.0668 34.0739 26.9714 33.0579L26.997 33.0822C26.9252 32.2329 27.0397 31.378 27.3325 30.5774C27.6253 29.7769 28.0893 29.0498 28.692 28.447C29.2948 27.8444 30.0218 27.3803 30.8224 27.0877C31.623 26.7949 32.4777 26.6803 33.3272 26.752L33.3016 26.7277C34.1315 26.8023 34.9669 26.6662 35.7303 26.3321C36.4936 25.9979 37.1604 25.4764 37.6685 24.816C38.1767 24.1556 38.51 23.3775 38.6373 22.554C38.7648 21.7305 38.6822 20.8882 38.3974 20.1049C38.1126 19.3218 37.6347 18.6232 37.008 18.074C36.3813 17.5247 35.6261 17.1425 34.8124 16.9629C33.9986 16.7832 33.1527 16.8118 32.353 17.0461C31.5533 17.2805 30.8257 17.7128 30.2376 18.3032H30.2336Z" fill="#1D1D21"/>
    <path d="M20.2854 25.4034L20.2598 25.3792C20.9817 25.4519 21.7108 25.3633 22.3943 25.1197C23.0778 24.8762 23.6987 24.4838 24.2119 23.971C24.7251 23.4581 25.1181 22.8375 25.362 22.1542C25.6061 21.4709 25.6952 20.742 25.6231 20.0199L25.6487 20.0442C25.577 19.1948 25.6916 18.34 25.9842 17.5394C26.277 16.7389 26.7411 16.0119 27.3437 15.409C27.9465 14.8064 28.6736 14.3423 29.4741 14.0497C30.2747 13.7569 31.1294 13.6423 31.9789 13.714L31.9533 13.6897C32.9694 13.7852 33.9902 13.5648 34.8765 13.0588C35.7629 12.5527 36.4714 11.7855 36.9057 10.8619C37.3399 9.93834 37.4787 8.90328 37.3031 7.8979C37.1275 6.89253 36.646 5.96582 35.9243 5.24414C35.2027 4.52248 34.2759 4.04099 33.2706 3.86538C32.2652 3.68975 31.2302 3.82853 30.3065 4.2628C29.3829 4.69705 28.6158 5.40566 28.1097 6.29196C27.6036 7.17824 27.3832 8.19907 27.4787 9.21519L27.4545 9.18956C27.5263 10.039 27.412 10.8939 27.1193 11.6946C26.8267 12.4953 26.3626 13.2224 25.76 13.8253C25.1572 14.428 24.43 14.892 23.6294 15.1846C22.8286 15.4773 21.9737 15.5916 21.1243 15.5198L21.1485 15.5454C20.4266 15.4727 19.6975 15.5613 19.014 15.8048C18.3306 16.0483 17.7097 16.4407 17.1964 16.9536C16.6831 17.4664 16.2903 18.087 16.0462 18.7704C15.8023 19.4537 15.7131 20.1826 15.7853 20.9046L15.761 20.8803C15.8325 21.7297 15.7177 22.5844 15.4249 23.3849C15.132 24.1853 14.6681 24.9123 14.0654 25.515C13.4627 26.1176 12.7358 26.5816 11.9353 26.8745C11.1348 27.1672 10.2801 27.282 9.43079 27.2105L9.45507 27.2348C8.43894 27.1393 7.41812 27.3597 6.53182 27.8658C5.64554 28.3719 4.93693 29.139 4.50268 30.0626C4.06841 30.9863 3.92962 32.0213 4.10524 33.0266C4.28087 34.032 4.76236 34.9587 5.48402 35.6804C6.2057 36.4021 7.13241 36.8836 8.13778 37.0591C9.14316 37.2347 10.1782 37.096 11.1018 36.6617C12.0254 36.2275 12.7926 35.5189 13.2986 34.6327C13.8048 33.7462 14.0251 32.7255 13.9296 31.7094L13.9552 31.7336C13.8835 30.8842 13.9981 30.0294 14.2909 29.2288C14.5835 28.4283 15.0476 27.7013 15.6503 27.0985C16.2531 26.4958 16.9801 26.0317 17.7806 25.7391C18.5813 25.4463 19.436 25.3317 20.2854 25.4034Z" fill="#1D1D21"/>
    <path d="M11.2474 22.6969C11.7585 22.1829 12.1499 21.5623 12.3935 20.8795C12.6371 20.1967 12.7269 19.4685 12.6567 18.747L12.6823 18.7712C12.6105 17.9216 12.7251 17.0665 13.018 16.2657C13.3109 15.465 13.7752 14.7378 14.3782 14.135C14.9813 13.5322 15.7086 13.0683 16.5095 12.7757C17.3104 12.4832 18.1656 12.3689 19.0152 12.4411L18.9896 12.4168C20.0053 12.5119 21.0258 12.2915 21.9116 11.7854C22.7975 11.2794 23.5056 10.5124 23.9398 9.58913C24.3737 8.66582 24.5124 7.63113 24.3368 6.62613C24.1612 5.62113 23.6798 4.69477 22.9584 3.97337C22.237 3.25196 21.3106 2.77063 20.3056 2.59502C19.3007 2.4194 18.2659 2.55806 17.3427 2.99205C16.4193 3.42605 15.6524 4.13428 15.1464 5.02016C14.6403 5.90603 14.4198 6.92644 14.515 7.94222L14.4907 7.91794C14.5625 8.76734 14.4478 9.62216 14.1551 10.4227C13.8623 11.2233 13.3984 11.9503 12.7956 12.5531C12.1929 13.1558 11.4659 13.6198 10.6653 13.9125C9.86472 14.2053 9.00992 14.3199 8.16052 14.2481L8.18479 14.2724C7.35484 14.198 6.51952 14.3343 5.75626 14.6686C4.99299 15.0029 4.32646 15.5246 3.81844 16.1851C3.31042 16.8455 2.97735 17.6236 2.85007 18.447C2.72281 19.2706 2.80546 20.1129 3.09038 20.8959C3.37529 21.679 3.85326 22.3775 4.47998 22.9266C5.10671 23.4759 5.86191 23.8579 6.67561 24.0376C7.4893 24.217 8.33516 24.1883 9.13482 23.9541C9.93447 23.7197 10.662 23.2873 11.2501 22.6969H11.2474Z" fill="#1D1D21"/>
    <path d="M53.0215 9.24622H57.0267V28.7371H53.0215V9.24622Z" fill="#1D1D21"/>
    <path d="M59.2951 22.063C59.2896 20.6624 59.6998 19.2914 60.4739 18.1241C61.248 16.9568 62.3511 16.0454 63.6436 15.5056C64.9361 14.9656 66.3596 14.8214 67.7341 15.0913C69.1085 15.3611 70.372 16.0327 71.3644 17.0212C72.3568 18.0096 73.0336 19.2704 73.3089 20.6438C73.5843 22.0172 73.4458 23.4414 72.9111 24.736C72.3764 26.0305 71.4695 27.1374 70.3053 27.9161C69.1409 28.6949 67.7718 29.1106 66.3711 29.1106C65.4414 29.1213 64.5188 28.9464 63.6573 28.5963C62.7959 28.2462 62.0129 27.7279 61.3541 27.0719C60.6952 26.4157 60.1738 25.6347 59.8204 24.7747C59.4668 23.9147 59.2882 22.9928 59.2951 22.063ZM69.4418 22.063C69.425 21.4592 69.2307 20.8738 68.8832 20.3799C68.5355 19.886 68.05 19.5054 67.4874 19.286C66.9247 19.0665 66.3098 19.0177 65.7196 19.1458C65.1293 19.2739 64.5899 19.573 64.1687 20.006C63.7477 20.4389 63.4634 20.9864 63.3519 21.5801C63.2402 22.1736 63.3059 22.7869 63.541 23.3433C63.776 23.8998 64.1698 24.3745 64.6731 24.7082C65.1765 25.042 65.7672 25.22 66.3711 25.22C66.7847 25.2311 67.1961 25.1562 67.5795 25.0003C67.9628 24.8444 68.3096 24.6109 68.5981 24.3143C68.8866 24.0176 69.1106 23.6644 69.2557 23.277C69.4009 22.8895 69.4643 22.4762 69.4418 22.063Z" fill="#1D1D21"/>
    <path d="M89.4105 15.3877V28.0642C89.4105 32.5496 85.9123 34.4457 82.3615 34.4457C81.1114 34.5393 79.8595 34.2867 78.7433 33.7158C77.6272 33.1449 76.6898 32.2776 76.034 31.2091L79.4513 29.2335C79.7269 29.7904 80.1661 30.2499 80.71 30.5505C81.254 30.8509 81.8768 30.9782 82.495 30.9151C82.8901 30.9699 83.2925 30.9351 83.6724 30.8133C84.0522 30.6915 84.3998 30.4859 84.6895 30.2117C84.9792 29.9374 85.2035 29.6016 85.3459 29.2289C85.4881 28.8563 85.5448 28.4564 85.5117 28.0588V26.8384C85.0427 27.4122 84.4458 27.8682 83.7687 28.1696C83.0916 28.471 82.3534 28.6095 81.613 28.574C79.8515 28.5184 78.1808 27.7797 76.9544 26.5139C75.728 25.2483 75.0422 23.555 75.0422 21.7927C75.0422 20.0304 75.728 18.3371 76.9544 17.0715C78.1808 15.8057 79.8515 15.067 81.613 15.0114C82.3534 14.9759 83.0916 15.1144 83.7687 15.4159C84.4458 15.7173 85.0427 16.1732 85.5117 16.747V15.385L89.4105 15.3877ZM85.5131 21.7947C85.5401 21.1493 85.3731 20.5105 85.0339 19.9607C84.6948 19.4107 84.1988 18.975 83.6098 18.7095C83.0209 18.4438 82.3661 18.3606 81.7294 18.4704C81.0927 18.5801 80.5035 18.8779 80.0375 19.3255C79.5716 19.773 79.2502 20.3496 79.1147 20.9813C78.9793 21.6129 79.0359 22.2708 79.2776 22.8699C79.5191 23.4691 79.9345 23.9824 80.4701 24.3435C81.0058 24.7047 81.6373 24.8973 82.2833 24.8964C82.7041 24.9258 83.1264 24.8668 83.523 24.723C83.9196 24.5793 84.2817 24.3539 84.5859 24.0618C84.8902 23.7696 85.13 23.4169 85.2896 23.0264C85.4493 22.636 85.5255 22.2164 85.5131 21.7947Z" fill="#1D1D21"/>
    <path d="M91.6789 22.063C91.6734 20.6624 92.0835 19.2914 92.8577 18.1241C93.6318 16.9568 94.7349 16.0454 96.0274 15.5056C97.3198 14.9656 98.7434 14.8214 100.118 15.0913C101.492 15.3611 102.756 16.0327 103.748 17.0212C104.741 18.0096 105.417 19.2704 105.693 20.6438C105.968 22.0172 105.83 23.4414 105.295 24.736C104.76 26.0305 103.853 27.1374 102.689 27.9161C101.525 28.6949 100.156 29.1106 98.7549 29.1106C97.8251 29.1213 96.9025 28.9464 96.0411 28.5963C95.1797 28.2462 94.3967 27.7279 93.7379 27.0719C93.079 26.4157 92.5576 25.6347 92.2042 24.7747C91.8506 23.9147 91.672 22.9928 91.6789 22.063ZM101.826 22.063C101.809 21.4592 101.614 20.8738 101.267 20.3799C100.919 19.886 100.434 19.5054 99.8712 19.286C99.3084 19.0665 98.6935 19.0177 98.1034 19.1458C97.5131 19.2739 96.9737 19.573 96.5525 20.006C96.1315 20.4389 95.8472 20.9864 95.7355 21.5801C95.6239 22.1736 95.6897 22.7869 95.9247 23.3433C96.1598 23.8998 96.5536 24.3745 97.0569 24.7082C97.5603 25.042 98.1508 25.22 98.7549 25.22C99.1685 25.2311 99.5799 25.1562 99.9632 25.0003C100.347 24.8444 100.693 24.6109 100.982 24.3143C101.27 24.0176 101.494 23.6644 101.639 23.277C101.785 22.8895 101.848 22.4762 101.826 22.063Z" fill="#1D1D21"/>
    <path d="M107.698 11.8099C107.698 11.3346 107.839 10.87 108.103 10.4748C108.367 10.0796 108.743 9.77156 109.182 9.58967C109.621 9.40778 110.104 9.36019 110.57 9.45292C111.036 9.54564 111.465 9.77452 111.801 10.1106C112.137 10.4467 112.366 10.8749 112.458 11.3411C112.551 11.8072 112.503 12.2904 112.322 12.7295C112.14 13.1687 111.832 13.544 111.436 13.8081C111.041 14.0721 110.577 14.2131 110.101 14.2131C109.466 14.2067 108.858 13.9516 108.409 13.5022C107.96 13.0529 107.705 12.4453 107.698 11.8099ZM108.103 15.3877H112.109V28.7385H108.097L108.103 15.3877Z" fill="#1D1D21"/>
    <path d="M129.403 22.0631C129.45 22.9455 129.321 23.8283 129.025 24.6608C128.729 25.4932 128.271 26.2589 127.678 26.9139C127.085 27.5688 126.368 28.1001 125.569 28.4772C124.77 28.8541 123.905 29.0695 123.022 29.1108C122.28 29.1512 121.538 29.0261 120.85 28.7444C120.162 28.4625 119.546 28.0312 119.045 27.4817V34.0776H115.04V15.3877H119.045V16.6419C119.546 16.0927 120.162 15.6617 120.85 15.3803C121.538 15.0987 122.28 14.9737 123.022 15.0141C123.905 15.0553 124.771 15.2705 125.57 15.6476C126.369 16.0246 127.086 16.556 127.679 17.2111C128.272 17.8662 128.73 18.6322 129.026 19.465C129.322 20.2976 129.45 21.1806 129.403 22.0631ZM125.398 22.0631C125.383 21.4383 125.183 20.832 124.824 20.32C124.466 19.8081 123.964 19.4132 123.382 19.185C122.801 18.9567 122.164 18.905 121.553 19.0367C120.942 19.1682 120.384 19.477 119.947 19.9244C119.511 20.372 119.216 20.9382 119.1 21.5524C118.984 22.1666 119.052 22.8012 119.294 23.3772C119.537 23.9532 119.945 24.4446 120.465 24.7902C120.986 25.1357 121.597 25.3201 122.222 25.3199C122.651 25.3391 123.08 25.2672 123.479 25.1092C123.878 24.9512 124.24 24.7105 124.54 24.403C124.84 24.0954 125.071 23.7281 125.219 23.3249C125.367 22.9216 125.428 22.4916 125.398 22.0631Z" fill="#1D1D21"/>
    <path d="M141.764 24.7318C141.764 27.8025 139.095 29.1107 136.212 29.1107C135.046 29.2161 133.877 28.9699 132.853 28.4033C131.83 27.8369 131 26.9765 130.471 25.9334L133.941 23.9578C134.081 24.4399 134.383 24.8594 134.795 25.146C135.207 25.4327 135.706 25.5693 136.206 25.5329C137.166 25.5329 137.648 25.2389 137.648 24.7062C137.648 23.2363 131.079 24.0117 131.079 19.3928C131.079 16.4813 133.536 15.014 136.313 15.014C137.357 14.981 138.39 15.2286 139.305 15.7309C140.221 16.2334 140.986 16.9722 141.518 17.8703L138.101 19.7125C137.951 19.3628 137.702 19.0649 137.383 18.856C137.065 18.6471 136.693 18.5365 136.313 18.5378C135.618 18.5378 135.191 18.8076 135.191 19.285C135.196 20.8075 141.764 19.792 141.764 24.7318Z" fill="#1D1D21"/>
    <path d="M156.393 15.3876V28.7384H152.388V27.4829C151.926 28.0369 151.339 28.4734 150.676 28.7566C150.012 29.0398 149.292 29.1616 148.572 29.112C145.875 29.112 143.582 27.1903 143.582 23.5828V15.3876H147.587V22.9962C147.554 23.3142 147.59 23.6357 147.694 23.9382C147.796 24.2408 147.965 24.5173 148.186 24.7483C148.407 24.9793 148.676 25.1593 148.974 25.276C149.27 25.3926 149.59 25.4431 149.91 25.4236C151.378 25.4236 152.392 24.57 152.392 22.6739V15.3916L156.393 15.3876Z" fill="#1D1D21"/>
    <path d="M179.36 20.5405V28.7371H175.355V20.887C175.355 19.5519 174.714 18.6983 173.433 18.6983C172.098 18.6983 171.35 19.6329 171.35 21.208V28.7371H167.346V20.887C167.346 19.5519 166.705 18.6983 165.423 18.6983C164.088 18.6983 163.34 19.6329 163.34 21.208V28.7371H159.335V15.3862H163.34V16.6134C163.756 16.069 164.301 15.6372 164.925 15.3576C165.551 15.0779 166.236 14.9594 166.918 15.0127C167.603 14.9791 168.286 15.1238 168.899 15.4325C169.512 15.741 170.033 16.2033 170.415 16.7739C170.859 16.1769 171.447 15.7022 172.124 15.3942C172.801 15.0862 173.545 14.9549 174.287 15.0127C177.352 15.014 179.36 17.2027 179.36 20.5405Z" fill="#1D1D21"/>
    <path d="M182.748 15.3053C184.389 15.3053 185.72 13.9746 185.72 12.3331C185.72 10.6916 184.389 9.36084 182.748 9.36084C181.106 9.36084 179.775 10.6916 179.775 12.3331C179.775 13.9746 181.106 15.3053 182.748 15.3053Z" fill="#1D1D21"/>
</svg>