<svg xmlns="http://www.w3.org/2000/svg" width="40" height="40" viewBox="0 0 40 40" fill="none">
    <path fill-rule="evenodd" clip-rule="evenodd" d="M10.737 3.33337H29.2703C33.4922 3.47828 36.8014 7.01104 36.6703 11.2334V22.1C36.7331 24.1392 35.9805 26.1194 34.5791 27.6021C33.1777 29.0848 31.2432 29.9478 29.2037 30H13.337C12.239 30.0227 11.1977 30.4922 10.4537 31.3L6.50368 35.5167C6.16903 35.8817 5.6988 36.0927 5.20368 36.1C4.69231 36.087 4.20737 35.8701 3.85678 35.4976C3.5062 35.1251 3.31906 34.6279 3.33701 34.1167V11.2334C3.20596 7.01104 6.51513 3.47828 10.737 3.33337ZM29.2703 27.5C32.1119 27.3563 34.3025 24.9422 34.1703 22.1V11.2334C34.3025 8.39124 32.1119 5.97715 29.2703 5.83337H10.737C7.89544 5.97715 5.70488 8.39124 5.83701 11.2334V32.5667L8.55368 29.6C9.79605 28.2785 11.5233 27.5202 13.337 27.5H29.2703Z" fill="#39D048"/>
    <path d="M13.7537 14.5834H22.087C22.7774 14.5834 23.337 14.0237 23.337 13.3334C23.337 12.643 22.7774 12.0834 22.087 12.0834H13.7537C13.0633 12.0834 12.5037 12.643 12.5037 13.3334C12.5037 14.0237 13.0633 14.5834 13.7537 14.5834Z" fill="#39D048"/>
    <path d="M26.2537 18.75H13.7537C13.0633 18.75 12.5037 19.3097 12.5037 20C12.5037 20.6904 13.0633 21.25 13.7537 21.25H26.2537C26.944 21.25 27.5037 20.6904 27.5037 20C27.5037 19.3097 26.944 18.75 26.2537 18.75Z" fill="#39D048"/>
</svg>