<svg xmlns="http://www.w3.org/2000/svg" width="30" height="29" viewBox="0 0 30 29" fill="none">
    <path d="M21.2666 5.07263C20.5762 5.07263 20.0166 5.63228 20.0166 6.32263C20.0166 7.01299 20.5762 7.57263 21.2666 7.57263C24.2533 7.59072 26.6727 10.0026 26.6999 12.9893V16.3226C26.6727 19.3093 24.2533 21.7212 21.2666 21.7393H17.5666L19.8499 19.4726C20.3374 18.9846 20.3374 18.194 19.8499 17.706C19.6178 17.4677 19.2992 17.3333 18.9666 17.3333C18.634 17.3333 18.3154 17.4677 18.0833 17.706L13.6666 22.106C13.5536 22.2216 13.4632 22.3572 13.3999 22.506C13.2837 22.8177 13.2837 23.1609 13.3999 23.4726C13.4632 23.6214 13.5536 23.757 13.6666 23.8726L18.0833 28.2726C18.5713 28.7601 19.3619 28.7601 19.8499 28.2726C20.3374 27.7846 20.3374 26.994 19.8499 26.506L17.5666 24.2393H21.2666C25.634 24.2211 29.1726 20.69 29.1999 16.3226V12.9893C29.1726 8.62194 25.634 5.09082 21.2666 5.07263Z" fill="#39D048"/>
    <path d="M15.8 6.80591C15.9162 6.49417 15.9162 6.15098 15.8 5.83924C15.7309 5.69372 15.6411 5.55899 15.5333 5.43924L11.1167 1.03924C10.8845 0.800996 10.566 0.666626 10.2333 0.666626C9.90069 0.666626 9.58215 0.800996 9.35 1.03924C8.86258 1.52727 8.86258 2.31788 9.35 2.80591L11.6333 5.07258H7.93333C3.56592 5.09076 0.0273729 8.62188 0 12.9892V16.3226C0.0273729 20.6899 3.56592 24.2211 7.93333 24.2392C8.62369 24.2392 9.18333 23.6796 9.18333 22.9892C9.18333 22.2989 8.62369 21.7392 7.93333 21.7392C4.9466 21.7212 2.52726 19.3092 2.5 16.3226V12.9892C2.52726 10.0026 4.9466 7.59066 7.93333 7.57258H11.6167L9.35 9.83924C8.86258 10.3273 8.86258 11.1179 9.35 11.6059C9.83803 12.0933 10.6286 12.0933 11.1167 11.6059L15.5333 7.20591C15.6411 7.08616 15.7309 6.95143 15.8 6.80591Z" fill="#39D048"/>
</svg>