<svg xmlns="http://www.w3.org/2000/svg" width="40" height="40" viewBox="0 0 40 40" fill="none">
    <path fill-rule="evenodd" clip-rule="evenodd" d="M25.0001 10.1334L33.3335 22.4334C33.5342 22.7644 33.577 23.1676 33.4501 23.5334L30.7835 31.65C30.6178 32.1643 30.1404 32.5139 29.6001 32.5167H29.4168C29.2607 35.2699 26.9827 37.4224 24.2251 37.4224C21.4676 37.4224 19.1895 35.2699 19.0335 32.5167H18.6501C18.1143 32.5163 17.6383 32.1744 17.4668 31.6667L14.7501 23.4167C14.6311 23.0517 14.6864 22.6523 14.9001 22.3334L22.9168 10.15C23.145 9.80044 23.5327 9.58785 23.9501 9.58337C24.3682 9.58719 24.7589 9.79186 25.0001 10.1334ZM24.7835 22.1167C24.7835 21.7669 24.4999 21.4834 24.1501 21.4834H24.1168C23.7801 21.5011 23.5163 21.7795 23.5168 22.1167C23.5168 22.4665 23.8003 22.75 24.1501 22.75C24.4999 22.75 24.7835 22.4665 24.7835 22.1167ZM24.2168 35C22.8068 34.9952 21.6379 33.9062 21.5335 32.5H26.9168C26.8119 33.9126 25.6332 35.0039 24.2168 35ZM19.5668 30H28.7001L30.8835 23.3334L25.2501 15V19.2C26.6335 19.7378 27.4499 21.1723 27.2055 22.6363C26.9612 24.1003 25.7232 25.192 24.2402 25.2513C22.7571 25.3107 21.4359 24.3213 21.0754 22.8815C20.7149 21.4417 21.4141 19.9465 22.7501 19.3V15L17.3168 23.2L19.5668 30Z" fill="#39D048"/>
    <path fill-rule="evenodd" clip-rule="evenodd" d="M12.6864 14.6847C12.8633 10.3081 16.4603 6.84027 20.8501 6.83337C21.3525 7.93804 22.4532 8.648 23.6668 8.65004C25.2079 8.65466 26.5158 7.52068 26.7296 5.99446C26.9433 4.46823 25.9974 3.01854 24.5143 2.59953C23.0313 2.18053 21.4666 2.92091 20.8501 4.33337H11.0501C10.4601 3.01167 9.02637 2.28242 7.61074 2.58403C6.19512 2.88563 5.18311 4.13597 5.18311 5.58337C5.18311 7.03078 6.19512 8.28111 7.61074 8.58272C9.02637 8.88433 10.4601 8.15508 11.0501 6.83337H14.0001C11.6568 8.78011 10.2611 11.6384 10.1668 14.6834C8.83851 15.2772 8.10608 16.7186 8.40965 18.1416C8.71322 19.5645 9.97017 20.5816 11.4251 20.5816C12.8801 20.5816 14.137 19.5645 14.4406 18.1416C14.7439 16.7197 14.0128 15.2793 12.6864 14.6847ZM24.2335 5.58337C24.2336 5.26761 23.9824 5.00906 23.6668 5.00004C23.3446 5.00004 23.0835 5.26121 23.0835 5.58337C23.0925 5.89901 23.351 6.15017 23.6668 6.15004C23.9797 6.15004 24.2335 5.89634 24.2335 5.58337ZM8.33345 6.15004C8.1803 6.15455 8.03184 6.09684 7.92194 5.99008C7.81204 5.88331 7.75005 5.7366 7.75012 5.58337C7.71103 5.35459 7.81129 5.12439 8.00543 4.99719C8.19958 4.86999 8.45066 4.86999 8.6448 4.99719C8.83895 5.12439 8.93921 5.35459 8.90012 5.58337C8.90012 5.73366 8.84042 5.8778 8.73415 5.98407C8.62788 6.09034 8.48374 6.15004 8.33345 6.15004ZM10.7931 17.7359C10.8823 17.9559 11.096 18.0999 11.3335 18.1C11.6492 18.1002 11.9078 17.849 11.9168 17.5334C11.9236 17.296 11.7858 17.0783 11.5685 16.9827C11.3511 16.8871 11.0975 16.9329 10.9272 17.0983C10.7569 17.2637 10.7039 17.5159 10.7931 17.7359Z" fill="#39D048"/>
</svg>