<svg xmlns="http://www.w3.org/2000/svg" width="32" height="32" viewBox="0 0 32 32" fill="none">
    <path d="M27.9231 8H5.07692C3.92987 8 3 8.98497 3 10.2V27.8C3 29.015 3.92987 30 5.07692 30H27.9231C29.0701 30 30 29.015 30 27.8V10.2C30 8.98497 29.0701 8 27.9231 8Z" stroke="#39D048" stroke-width="2" stroke-linecap="round" stroke-linejoin="round"/>
    <path d="M9.23047 16H23.7689M9.23047 22.8571H23.7689M12.3459 1.14282H20.6535C21.2044 1.14282 21.7327 1.38364 22.1222 1.81229C22.5117 2.24095 22.7305 2.82233 22.7305 3.42854V7.99996H10.2689V3.42854C10.2689 2.82233 10.4877 2.24095 10.8772 1.81229C11.2667 1.38364 11.795 1.14282 12.3459 1.14282Z" stroke="#39D048" stroke-width="2" stroke-linecap="round" stroke-linejoin="round"/>
</svg>