<svg xmlns="http://www.w3.org/2000/svg" width="32" height="20" viewBox="0 0 32 20" fill="none">
    <path d="M0.5 12.6406C0.5 8.51159 2.0018 5.52436 4.27667 3.54796C6.56281 1.56177 9.67123 0.561498 12.9274 0.502747C14.0115 0.483187 14.8159 1.53378 14.5696 2.7039C14.3603 3.69825 13.4151 4.39512 12.3224 4.40853C10.0669 4.43621 8.28545 4.95152 7.22848 6.13258C6.95683 6.43612 6.81341 6.78931 6.83811 7.16119C6.86219 7.52383 7.04123 7.83044 7.26969 8.06302C7.71705 8.51846 8.44181 8.78858 9.152 8.78858C11.6946 8.78858 13.516 10.4831 13.516 12.5126C13.516 16.4777 10.4611 18.9246 6.784 18.9246C5.1633 18.9246 3.59113 18.3841 2.43022 17.3407C1.27765 16.3048 0.5 14.7469 0.5 12.6406ZM17.14 12.6406C17.14 8.51159 18.6418 5.52436 20.9167 3.54796C23.2028 1.56177 26.3112 0.561498 29.5674 0.502747C30.6515 0.483187 31.4559 1.53378 31.2096 2.7039C31.0003 3.69825 30.0551 4.39512 28.9624 4.40853C26.7069 4.43621 24.9254 4.95152 23.8685 6.13258C23.5968 6.43612 23.4534 6.78931 23.4781 7.16119C23.5022 7.52383 23.6812 7.83044 23.9097 8.06302C24.3571 8.51846 25.0818 8.78858 25.792 8.78858C28.3346 8.78858 30.156 10.4831 30.156 12.5126C30.156 16.4777 27.1011 18.9246 23.424 18.9246C21.8033 18.9246 20.2311 18.3841 19.0702 17.3407C17.9177 16.3048 17.14 14.7469 17.14 12.6406Z" fill="#39D048" stroke="#39D048"/>
</svg>