<svg width="30" height="24" viewBox="0 0 30 24" fill="none" xmlns="http://www.w3.org/2000/svg">
<path d="M26.9472 5.95663C26.9472 6.24578 26.9472 6.47711 26.9472 6.76626C26.9472 14.8048 20.7828 24 9.45205 24C5.92955 24 2.70059 23.0169 0 21.2819C0.469667 21.3398 0.939335 21.3976 1.46771 21.3976C4.34442 21.3976 6.9863 20.4145 9.0998 18.7952C6.39922 18.7373 4.10959 17.0024 3.34638 14.5735C3.75734 14.6313 4.10959 14.6892 4.52055 14.6892C5.04892 14.6892 5.63601 14.5735 6.10567 14.4578C3.28767 13.8795 1.17417 11.4506 1.17417 8.5012V8.44337C1.99609 8.90602 2.99413 9.13735 3.99217 9.19518C2.28963 8.09639 1.23288 6.24578 1.23288 4.16386C1.23288 3.00723 1.52642 1.96627 2.05479 1.0988C5.10763 4.74217 9.68689 7.17108 14.7945 7.46024C14.6771 6.99759 14.6184 6.53494 14.6184 6.07229C14.6184 2.71807 17.3777 0 20.7828 0C22.544 0 24.1292 0.693976 25.3033 1.90843C26.6536 1.61928 28.0039 1.0988 29.1781 0.404819C28.7084 1.8506 27.7691 3.00723 26.4775 3.75904C27.7104 3.64337 28.9432 3.29639 30 2.83373C29.1781 4.04819 28.1213 5.08916 26.9472 5.95663Z" fill="#39D048"/>
</svg>
