<svg xmlns="http://www.w3.org/2000/svg" width="40" height="40" viewBox="0 0 40 40" fill="none">
    <path d="M20 25H9.16667C8.0616 25 7.00179 24.561 6.22039 23.7796C5.43899 22.9982 5 21.9384 5 20.8333C5 19.7283 5.43899 18.6685 6.22039 17.8871C7.00179 17.1057 8.0616 16.6667 9.16667 16.6667H10M25 20V30.8333C25 31.9384 24.561 32.9982 23.7796 33.7796C22.9982 34.561 21.9384 35 20.8333 35C19.7283 35 18.6685 34.561 17.8871 33.7796C17.1057 32.9982 16.6667 31.9384 16.6667 30.8333V30M20 15H30.8333C31.9384 15 32.9982 15.439 33.7796 16.2204C34.561 17.0018 35 18.0616 35 19.1667C35 20.2717 34.561 21.3315 33.7796 22.1129C32.9982 22.8943 31.9384 23.3333 30.8333 23.3333H30M15 20V9.16667C15 8.0616 15.439 7.00179 16.2204 6.22039C17.0018 5.43899 18.0616 5 19.1667 5C20.2717 5 21.3315 5.43899 22.1129 6.22039C22.8943 7.00179 23.3333 8.0616 23.3333 9.16667V10" stroke="#39D048" stroke-width="2.5" stroke-linecap="round" stroke-linejoin="round"/>
</svg>