<svg xmlns="http://www.w3.org/2000/svg" width="40" height="40" viewBox="0 0 40 40" fill="none">
    <path d="M20.0003 20C19.5583 20 19.1344 19.8244 18.8218 19.5118C18.5093 19.1993 18.3337 18.7754 18.3337 18.3333C18.3337 17.8913 18.5093 17.4674 18.8218 17.1548C19.1344 16.8423 19.5583 16.6667 20.0003 16.6667C20.4424 16.6667 20.8663 16.8423 21.1788 17.1548C21.4914 17.4674 21.667 17.8913 21.667 18.3333C21.667 18.7754 21.4914 19.1993 21.1788 19.5118C20.8663 19.8244 20.4424 20 20.0003 20ZM20.0003 20V24.1667M20 5C23.8931 8.44429 28.9742 10.2376 34.1667 10C34.9227 12.5717 35.154 15.2691 34.8469 17.932C34.5398 20.5948 33.7006 23.1688 32.3791 25.5009C31.0575 27.833 29.2807 29.8756 27.1541 31.5075C25.0276 33.1393 22.5947 34.327 20 35C17.4054 34.327 14.9725 33.1393 12.846 31.5075C10.7194 29.8756 8.94257 27.833 7.62104 25.5009C6.29952 23.1688 5.46027 20.5948 5.15317 17.932C4.84608 15.2691 5.0774 12.5717 5.83338 10C11.0259 10.2376 16.107 8.44429 20 5Z" stroke="#39D048" stroke-width="2.5" stroke-linecap="round" stroke-linejoin="round"/>
</svg>