<svg xmlns="http://www.w3.org/2000/svg" width="33" height="33" viewBox="0 0 33 33" fill="none">
    <path fill-rule="evenodd" clip-rule="evenodd" d="M32.0748 13.6414C31.1886 13.4871 30.2909 13.4091 29.3915 13.4081C25.1495 13.4081 21.0816 15.0943 18.0836 18.0954C15.0857 21.0964 13.4037 25.1661 13.4081 29.4081C13.4008 30.3023 13.479 31.1953 13.6415 32.0747C5.6209 30.7129 -0.0970915 23.5439 0.358754 15.4213C0.8146 7.29877 7.29883 0.814539 15.4214 0.358693C23.5439 -0.0971525 30.713 5.62084 32.0748 13.6414ZM13.5415 3.07903C7.28233 4.3978 2.80788 9.92818 2.82481 16.3247C2.80985 21.6955 5.9954 26.5591 10.9248 28.6914C11.2829 19.0229 19.0241 11.26 28.6915 10.8747C26.1261 5.01513 19.8006 1.76025 13.5415 3.07903Z" fill="#39D048"/>
    <path fill-rule="evenodd" clip-rule="evenodd" d="M29.7415 15.408C30.5291 15.4069 31.3154 15.4738 32.0915 15.608C32.2394 16.3881 32.312 17.1806 32.3082 17.9746C32.3082 21.7171 30.8203 25.306 28.1725 27.9507C25.5246 30.5955 21.9339 32.0791 18.1915 32.0746C17.4039 32.0757 16.6176 32.0088 15.8415 31.8746C15.6984 31.0941 15.6314 30.3015 15.6415 29.508C15.6415 21.7208 21.9543 15.408 29.7415 15.408ZM29.8581 17.908C23.4148 17.908 18.1915 23.1313 18.1915 29.5746C21.2857 29.5746 24.2531 28.3455 26.4411 26.1576C28.629 23.9696 29.8581 21.0022 29.8581 17.908Z" fill="#39D048"/>
</svg>