<svg xmlns="http://www.w3.org/2000/svg" width="36" height="35" viewBox="0 0 36 35" fill="none">
    <path fill-rule="evenodd" clip-rule="evenodd" d="M9.06662 0.33695H26.5666C28.853 0.269784 31.0713 1.11978 32.7274 2.69759C34.3835 4.2754 35.3398 6.44999 35.3833 8.73695V21.387C35.247 26.0883 31.3526 29.8045 26.6499 29.7203H23.9499C23.2713 29.7221 22.6291 30.0279 22.1999 30.5536L19.6499 33.8036C19.2228 34.3322 18.5796 34.6394 17.8999 34.6394C17.2203 34.6394 16.5771 34.3322 16.1499 33.8036L13.5166 30.4869C13.0875 29.9612 12.4453 29.6554 11.7666 29.6536H9.06662C4.364 29.7378 0.469521 26.0217 0.333282 21.3203V8.67028C0.460567 3.96491 4.36044 0.243651 9.06662 0.33695ZM26.5833 27.2203C29.9307 27.3043 32.7168 24.6673 32.8166 21.3203V8.73695C32.7168 5.38324 29.9205 2.74354 26.5666 2.83695H9.06662C5.71272 2.74354 2.91643 5.38324 2.81662 8.73695V21.3203C2.91643 24.674 5.71272 27.3137 9.06662 27.2203H11.7666C13.2118 27.2206 14.5788 27.8765 15.4833 29.0036L17.8166 31.9703L20.1499 29.0036C21.0544 27.8765 22.4214 27.2206 23.8666 27.2203H26.5833Z" fill="#39D048"/>
    <path d="M11.5666 11.937C10.8763 11.937 10.3166 12.4967 10.3166 13.187V17.187C10.3166 17.8774 10.8763 18.437 11.5666 18.437C12.257 18.437 12.8166 17.8774 12.8166 17.187V13.187C12.8166 12.4967 12.257 11.937 11.5666 11.937V11.937Z" fill="#39D048"/>
    <path d="M17.8166 11.937C17.1263 11.937 16.5666 12.4967 16.5666 13.187V17.187C16.5666 17.8774 17.1263 18.437 17.8166 18.437C18.507 18.437 19.0666 17.8774 19.0666 17.187V13.187C19.0666 12.4967 18.507 11.937 17.8166 11.937V11.937Z" fill="#39D048"/>
    <path d="M24.0666 11.937C23.3763 11.937 22.8166 12.4967 22.8166 13.187V17.187C22.8166 17.8774 23.3763 18.437 24.0666 18.437C24.757 18.437 25.3166 17.8774 25.3166 17.187V13.187C25.3166 12.4967 24.757 11.937 24.0666 11.937V11.937Z" fill="#39D048"/>
</svg>