<svg xmlns="http://www.w3.org/2000/svg" width="34" height="34" viewBox="0 0 34 34" fill="none">
    <path fill-rule="evenodd" clip-rule="evenodd" d="M30.8 3.36661L33.5667 11.0499C34.1686 12.5377 34.0198 14.2239 33.1667 15.5833C32.4407 16.6135 31.3903 17.3705 30.1833 17.7333V29.0666C30.1571 30.3397 29.626 31.5503 28.707 32.4317C27.788 33.3132 26.5564 33.7934 25.2833 33.7666H9.18333C7.89442 33.8161 6.63952 33.3465 5.69969 32.463C4.75986 31.5796 4.21363 30.3561 4.18333 29.0666V17.8999C3.00992 17.6312 1.95302 16.9947 1.16667 16.0833C0.0359832 14.6719 -0.244437 12.7599 0.433333 11.0833L3.18333 3.38327C3.83189 1.74113 5.43486 0.676915 7.2 0.716607H26.7833C28.5457 0.669365 30.15 1.7278 30.8 3.36661ZM19.2525 31.0497H19.2668V31.0997C19.2617 31.0831 19.257 31.0664 19.2525 31.0497ZM19.2525 31.0497H15.0168C15.0326 30.9224 15.0326 30.7936 15.0168 30.6664V27.1497C15.0458 26.6209 15.2905 26.1271 15.6937 25.7837C16.097 25.4404 16.6234 25.2774 17.1501 25.333C18.1975 25.2562 19.1116 26.0366 19.2001 27.083V30.6497C19.2001 30.7848 19.2177 30.9193 19.2525 31.0497ZM25.2 31.05H21.6833C21.6992 30.9227 21.6992 30.7939 21.6833 30.6667V27.15C21.5928 24.6958 19.538 22.775 17.0833 22.85C14.6222 22.7656 12.5571 24.6891 12.4666 27.15V30.7167C12.4508 30.8439 12.4508 30.9727 12.4666 31.1H9.09997C7.87229 31.1566 6.82954 30.2107 6.76664 28.9833V17.8667C8.98725 17.5314 10.7707 15.8607 11.25 13.6667C11.837 16.3285 14.2801 18.1626 17 17.9833C19.6708 18.0953 22.0375 16.2763 22.6166 13.6667C23.0856 15.9988 25.0171 17.7548 27.3833 18V29.0667C27.2814 30.2025 26.3401 31.079 25.2 31.1V31.05ZM28.5334 15.0666C29.417 15.0434 30.2355 14.5969 30.7334 13.8666V13.9166C31.0792 13.3339 31.1227 12.6202 30.8501 11.9999L28.1001 4.4166C27.8561 3.92063 27.3344 3.62349 26.7834 3.6666H7.20007C6.66991 3.61812 6.16076 3.88575 5.90007 4.34993L3.15007 11.9999C2.79267 12.7073 2.85685 13.5545 3.31674 14.1999C3.73214 14.7104 4.32987 15.0391 4.9834 15.1166C5.1938 15.1411 5.40634 15.1411 5.61674 15.1166C6.89917 15.1866 8.0574 14.3544 8.40007 13.1166C8.65436 11.7078 9.86868 10.6749 11.3001 10.6499C12.7469 10.6492 13.9781 11.7036 14.2001 13.1333C14.5393 14.3787 15.7126 15.2098 17.0001 15.1166C18.2981 15.2031 19.4712 14.3461 19.7834 13.0833C20.0245 11.6643 21.2443 10.6198 22.6834 10.5999C24.1248 10.598 25.3541 11.6435 25.5834 13.0666C25.923 14.3212 27.1036 15.1596 28.4001 15.0666H28.5334Z" fill="#39D048"/>
</svg>