<svg xmlns="http://www.w3.org/2000/svg" width="193" height="25" viewBox="0 0 193 25" fill="none">
    <path d="M95.8122 21.1828H89.3448V3.89269H95.8122V21.1828ZM89.9764 20.5512H95.1806V4.52427H89.9764V20.5512ZM104.811 21.1828H98.4737V3.89269H111.714C113.611 3.73909 115.5 4.2716 117.037 5.39332C117.699 5.99876 118.212 6.74893 118.536 7.58527C118.86 8.42162 118.986 9.32153 118.905 10.2148C119 11.7583 118.508 13.2807 117.53 14.478C116.371 15.8068 114.444 16.4914 111.801 16.5154C111.136 16.5331 106.147 16.5154 104.815 16.5154L104.811 21.1828ZM99.1014 20.5512H104.179V15.8775H104.496C104.561 15.8775 111.037 15.8977 111.786 15.8775C114.248 15.8561 116.018 15.246 117.052 14.0548C117.924 12.9716 118.356 11.6007 118.265 10.2135C118.343 9.41316 118.235 8.60565 117.95 7.85362C117.665 7.1016 117.211 6.42528 116.623 5.87711C115.197 4.85408 113.453 4.37386 111.705 4.523H99.1052L99.1014 20.5512ZM110.373 12.6312H104.136V7.92469H110.414C110.859 7.8632 111.313 7.91514 111.732 8.07567C112.152 8.23622 112.524 8.50016 112.814 8.843C113.078 9.28124 113.202 9.78908 113.171 10.2994C113.194 10.7732 113.092 11.2449 112.874 11.6662C112.574 12.0273 112.187 12.3053 111.749 12.4734C111.311 12.6415 110.837 12.6941 110.373 12.6262V12.6312ZM104.768 11.9996H110.373C111.408 11.9996 112.05 11.7836 112.334 11.339C112.491 11.0158 112.562 10.6579 112.54 10.2994C112.568 9.92308 112.486 9.54676 112.305 9.21564L112.298 9.20427C111.997 8.76216 111.4 8.55627 110.414 8.55627H104.768V11.9996ZM130.432 21.438C124.76 21.438 121.375 20.0295 120.085 17.1331C119.874 16.5737 119.731 15.991 119.658 15.3975L119.603 15.0337H126.35L126.395 15.299C126.446 15.5683 126.561 15.8218 126.728 16.0392C126.994 16.3613 127.884 16.902 130.835 16.902C134.381 16.902 134.381 16.2792 134.381 15.9445C134.381 15.3798 133.971 15.1866 131.078 14.8784L130.529 14.8266C129.44 14.7243 128.063 14.5942 127.434 14.5398C122.129 14.0598 119.76 12.4114 119.76 9.19669C119.76 5.82027 123.791 3.63879 130.03 3.63879C135.119 3.63879 138.398 4.98027 139.774 7.62911C140.1 8.24525 140.32 8.91247 140.422 9.60216L140.466 9.95711H133.711L133.683 9.67164C133.656 9.44854 133.562 9.23924 133.41 9.0729C133.157 8.73437 132.359 8.17479 129.881 8.17479C126.838 8.17479 126.418 8.56385 126.418 8.98322C126.418 9.54279 127.38 9.74111 130.461 10.0708C131.745 10.1756 133.811 10.3878 134.518 10.4737C138.965 10.9563 140.95 12.5643 140.95 15.6893C140.951 18.3104 139.126 21.438 130.432 21.438ZM120.34 15.6653C120.403 16.0819 120.512 16.4902 120.665 16.883C121.84 19.5217 125.035 20.8064 130.432 20.8064C134.944 20.8064 140.323 19.9222 140.323 15.6893C140.323 12.9192 138.568 11.5474 134.451 11.1015C133.744 11.0156 131.691 10.8047 130.409 10.6986C127.125 10.3424 125.789 10.1529 125.789 8.98322C125.789 7.77311 127.228 7.54322 129.883 7.54322C131.981 7.54322 133.337 7.92216 133.912 8.68637C134.068 8.87465 134.187 9.09178 134.26 9.32553H139.735C139.625 8.837 139.451 8.36514 139.217 7.92216C137.954 5.49816 134.868 4.27037 130.032 4.27037C124.178 4.27037 120.395 6.20427 120.395 9.19669C120.395 12.0514 122.518 13.4611 127.492 13.9108C128.124 13.9651 129.499 14.0952 130.591 14.1988L131.144 14.2506C133.831 14.5335 135.016 14.7104 135.016 15.9445C135.016 17.2733 133.483 17.5335 130.837 17.5335C128.389 17.5335 126.843 17.166 126.245 16.4422C126.061 16.2114 125.922 15.9478 125.836 15.6653H120.34ZM152.95 21.4165C146.356 21.4165 142.718 18.75 142.718 13.907V3.89269H149.1V13.907C149.1 15.5681 150.587 16.5205 153.177 16.5205C155.653 16.5205 157.19 15.5264 157.19 13.9285V3.89269H163.506V14.4375C163.512 18.8725 159.661 21.4165 152.946 21.4165H152.95ZM143.35 4.52427V13.907C143.35 19.8918 149.36 20.7849 152.95 20.7849C156.661 20.7849 162.885 19.9601 162.885 14.4375V4.52427H157.832V13.9285C157.832 15.8864 156.008 17.1521 153.187 17.1521C150.239 17.1521 148.478 15.9394 148.478 13.907V4.52427H143.35ZM190.27 21.1828H184.247V13.3765L180.832 21.1828H175.578L172.198 13.3916V21.1828H166.154V3.89269H174.104L178.234 13.4257L182.565 3.89269H190.277L190.27 21.1828ZM184.879 20.5512H189.638V4.52427H182.966L178.214 14.982L173.685 4.52427H166.78V20.5512H171.561V10.3525L175.982 20.555H180.403L184.871 10.3676L184.879 20.5512ZM7.84715 4.20848H2.09473V20.867H17.9903V16.4321H7.84715V4.20848ZM29.6012 3.82953C22.2585 3.82953 18.397 7.30953 18.397 12.419C18.397 18.1916 22.4505 21.1196 29.6012 21.1196C37.4732 21.1196 40.784 17.7243 40.784 12.419C40.784 7.03164 37.0488 3.827 29.6012 3.827V3.82953ZM29.5798 8.15837C30.0796 8.15602 30.5792 8.18513 31.0754 8.24553L24.6446 14.6763C24.3403 13.988 24.1919 13.2408 24.2101 12.4885C24.2101 9.87501 25.5263 8.15585 29.5798 8.15585V8.15837ZM29.6012 16.859C29.1196 16.8612 28.6383 16.8341 28.16 16.7782L34.6021 10.3361C34.895 11.013 35.0352 11.7462 35.0126 12.4834C35.0126 15.0262 33.8 16.8565 29.6012 16.8565V16.859ZM52.1815 14.5853H58.1019C58.0147 14.9962 57.8331 15.3811 57.5714 15.7095C56.3439 16.7094 54.7775 17.196 53.1996 17.0674C52.4053 17.1524 51.6022 17.0657 50.8444 16.813C50.0866 16.5605 49.3919 16.148 48.8076 15.6034C48.209 14.7254 47.9246 13.6709 48.0004 12.611C47.9035 11.5004 48.2127 10.3923 48.8707 9.49227C49.6981 8.55753 51.0989 8.15458 53.1579 8.15458C54.4679 8.04612 55.7763 8.38256 56.8716 9.10953C57.2168 9.38374 57.4748 9.75237 57.6143 10.1706H63.1052C63.0653 9.48149 62.8996 8.80553 62.6164 8.17606C61.3015 5.50195 58.2446 3.91037 53.0467 3.91037C48.5259 3.91037 45.4918 5.28974 43.8156 7.37016C42.7085 8.87251 42.1402 10.7042 42.2025 12.5693C42.1309 14.4767 42.6845 16.3551 43.7789 17.9188C45.4349 20.0662 48.3844 21.1222 51.9288 21.1222C54.2852 21.2865 56.6256 20.6265 58.549 19.2552L58.6981 20.867H63.2593V10.9992H52.1815V14.5853ZM76.2055 3.82574C68.864 3.82574 65.0012 7.30574 65.0012 12.4152C65.0012 18.1878 69.0535 21.1158 76.2055 21.1158C84.0787 21.1158 87.3895 17.7205 87.3895 12.4152C87.3895 7.03164 83.6543 3.827 76.2055 3.827V3.82574ZM76.1852 8.15458C76.6719 8.15314 77.1582 8.18098 77.6417 8.23795L71.2362 14.6472C70.9414 13.9665 70.7979 13.2301 70.8156 12.4885C70.8105 9.87501 72.1318 8.15458 76.1852 8.15458ZM76.2055 16.8552C75.7111 16.8574 75.217 16.8286 74.7263 16.7693L81.1899 10.3045C81.4939 10.9904 81.6394 11.736 81.6156 12.486C81.6181 15.0262 80.4105 16.8565 76.2055 16.8565V16.8552Z" fill="white"/>
</svg>
