<svg xmlns="http://www.w3.org/2000/svg" width="87" height="55" viewBox="0 0 87 55" fill="none">
    <g clip-path="url(#clip0_1030_2112)">
        <path d="M81.3041 7.13768C81.3041 7.20064 81.3041 7.27934 81.288 7.32657C81.2074 7.94046 81.2074 8.55436 81.2557 9.184C81.288 9.34141 81.3202 9.49882 81.4492 9.62475C81.6587 9.86085 81.9809 9.81364 82.1099 9.5303C82.1744 9.38863 82.1744 9.24696 82.1421 9.10529C81.9809 8.50713 81.9487 7.8775 81.9326 7.2636C81.9326 7.23212 81.9326 7.18489 81.9326 7.13768C82.1099 7.12193 82.2711 7.10619 82.4161 7.10619C82.529 7.09045 82.6257 7.07471 82.7063 7.02748C82.9479 6.90156 82.9479 6.63397 82.6901 6.50804C82.5934 6.46081 82.4645 6.44507 82.3517 6.44507C81.9487 6.46081 81.5459 6.46081 81.1429 6.46081C80.9979 6.46081 80.8529 6.47656 80.7078 6.49229C80.6272 6.50804 80.5305 6.50804 80.4661 6.55527C80.3532 6.60248 80.2888 6.68118 80.2888 6.79137C80.3049 6.90156 80.3532 6.96452 80.4661 7.01175C80.5305 7.05897 80.6111 7.07471 80.6917 7.07471C80.885 7.09045 81.0946 7.12193 81.3041 7.13768ZM85.7361 7.86176C85.7361 7.8775 85.7522 7.89324 85.7522 7.89324C85.8167 8.31824 85.8812 8.72751 85.9294 9.13677C85.9457 9.27844 85.9617 9.40437 86.0584 9.51455C86.2679 9.78215 86.5903 9.75067 86.7353 9.46734C86.7998 9.32566 86.8158 9.184 86.7837 9.02659C86.687 8.55436 86.6386 8.08213 86.5419 7.62564C86.4774 7.3423 86.3969 7.07471 86.3163 6.82286C86.2679 6.66545 86.1551 6.55525 85.9617 6.53952C85.7684 6.50804 85.6233 6.60248 85.5427 6.74415C85.446 6.87007 85.3654 6.996 85.3009 7.13768C85.1881 7.38953 85.0914 7.64139 84.9625 7.8775C84.9463 7.94046 84.9302 7.98769 84.8981 8.0349C84.882 8.00342 84.8659 7.98769 84.8659 7.98769C84.6563 7.59416 84.4629 7.20064 84.2534 6.82286C84.2211 6.79137 84.205 6.75989 84.1889 6.72841C84.0922 6.58674 83.9794 6.50804 83.8022 6.50804C83.641 6.52377 83.512 6.61822 83.4315 6.75989C83.3992 6.82286 83.3992 6.87007 83.3831 6.93304C83.3186 7.43675 83.238 7.94046 83.1736 8.44417C83.1413 8.72751 83.1252 9.01084 83.1252 9.29418C83.1091 9.35714 83.1252 9.43585 83.1574 9.49882C83.1897 9.62474 83.2864 9.70345 83.4153 9.71919C83.5765 9.73493 83.6893 9.68771 83.7377 9.56178C83.7859 9.46734 83.8022 9.38863 83.8183 9.30993C83.8828 9.02659 83.931 8.75899 83.9794 8.4914C84.0116 8.33399 84.0277 8.20806 84.0761 8.0349C84.1083 8.09787 84.1405 8.1451 84.1728 8.19231C84.3178 8.38121 84.4629 8.5701 84.6402 8.72751C84.8175 8.85343 84.9625 8.8377 85.1075 8.69602C85.1398 8.66454 85.1559 8.64881 85.1881 8.61732C85.3332 8.39695 85.5105 8.17658 85.6555 7.9562C85.6878 7.92472 85.7039 7.89324 85.7361 7.86176Z" fill="#1D1D21"/>
        <path d="M48.6016 7.44694C48.4895 7.74609 48.4682 7.96161 48.5199 8.14074C48.577 8.38433 48.7253 8.46408 48.9265 8.40213C50.8195 7.94493 54.9705 9.24265 56.5073 9.60434C56.8697 9.68028 57.1646 9.22331 56.9173 8.8136C56.5563 8.41682 52.4072 6.71806 50.8241 6.62544C50.2035 6.59119 49.0941 6.43577 48.6016 7.44694Z" fill="#1D1D21"/>
        <path d="M64.8251 1.94795C65.0268 2.06168 65.1396 2.17017 65.1953 2.29139C65.2782 2.4504 65.2345 2.56041 65.0952 2.61655C63.8439 3.21303 62.1788 5.78098 61.5066 6.66664C61.3437 6.87038 60.9679 6.75199 60.9111 6.41694C60.9228 6.03811 62.3988 3.2513 63.2226 2.49227C63.5463 2.19592 64.0811 1.61445 64.8251 1.94795Z" fill="#1D1D21"/>
        <path d="M54.8598 0.683841C55.1022 0.505423 55.354 0.4429 55.4827 0.558849C57.3706 2.13583 58.3718 4.63312 58.9917 6.91934C59.015 6.9726 59.0165 7.04903 58.9978 7.12877C58.9901 7.19692 58.9391 7.26891 58.8582 7.32462C58.7717 7.38612 58.6972 7.40485 58.6622 7.35185C57.8348 6.25262 53.1088 1.9757 54.8598 0.683841Z" fill="#1D1D21"/>
        <path d="M14.8805 28.0247C15.3329 27.6957 15.8249 27.4218 16.3454 27.2092C16.89 27.0571 17.4705 27.0823 17.9992 27.2811C18.5277 27.4799 18.9758 27.8414 19.2753 28.3109C19.5433 28.7793 19.6481 29.32 19.5741 29.8516C19.5001 30.3832 19.2514 30.8769 18.8651 31.2585C18.5657 31.5677 18.2257 31.8371 17.8543 32.0598C16.199 33.1043 14.5288 34.0915 12.8588 35.136C12.5171 35.3974 12.1546 35.632 11.7747 35.8372C11.197 36.1186 10.5367 36.1939 9.90804 36.0502C9.2794 35.9066 8.72195 35.5528 8.33208 35.0502C8.04062 34.6943 7.79465 34.3052 7.59959 33.8912C6.01744 30.6432 4.37669 27.4095 2.85313 24.1042C2.14994 22.6734 1.57861 21.0279 1.02193 19.4397C0.78108 18.9783 0.734048 18.4433 0.890846 17.9484C1.04764 17.4536 1.3959 17.0381 1.86154 16.7901C2.32718 16.5422 2.87345 16.4816 3.38419 16.621C3.89493 16.7604 4.32985 17.089 4.59642 17.5367C5.41582 18.6003 6.14115 19.73 6.76457 20.9135C8.34672 23.7752 9.85564 26.6368 11.3792 29.4126C11.4679 29.5661 11.5657 29.7141 11.6722 29.8562C12.8189 29.3853 13.8975 28.7696 14.8805 28.0247Z" fill="#1D1D21"/>
        <path d="M31.2387 27.0265C27.6203 31.1615 21.5553 30.117 18.5082 24.7943C16.34 21.0169 15.9592 14.7784 20.6764 10.8436C21.6837 10.0198 22.8882 9.45866 24.1776 9.21245C25.7585 8.99108 27.3706 9.26349 28.7835 9.99075C30.1963 10.718 31.3377 11.8629 32.0445 13.2617C34.6228 17.8405 34.2565 23.6782 31.2387 27.0265ZM29.7737 17.3826C29.3893 16.2574 28.6181 15.2968 27.5909 14.6639C27.0097 14.2593 26.3034 14.0625 25.591 14.1068C24.8786 14.1512 24.2036 14.4338 23.6795 14.9072C21.5847 16.7244 21.1451 21.0312 22.6686 23.5924C22.8629 24.0101 23.148 24.3812 23.5044 24.6799C23.8608 24.9786 24.2798 25.1977 24.7319 25.3217C25.184 25.4457 25.6584 25.4718 26.1219 25.398C26.5854 25.3241 27.0267 25.1523 27.4152 24.8945C28.5508 24.0345 29.3839 22.8504 29.7987 21.5068C30.2135 20.1631 30.1895 18.7265 29.7299 17.3969L29.7737 17.3826Z" fill="#1D1D21"/>
        <path d="M46.0057 19.1854C45.6353 19.2633 45.2526 19.2679 44.8802 19.1991C44.5079 19.1302 44.1534 18.9895 43.8376 18.7849C43.5613 18.6305 43.3235 18.4183 43.1411 18.1634C42.959 17.9085 42.8368 17.6174 42.7836 17.3108C42.7303 17.0043 42.7474 16.6902 42.8333 16.3908C42.9193 16.0915 43.0722 15.8145 43.281 15.5797C43.6446 15.108 44.1609 14.7702 44.7459 14.6211C46.2734 14.1881 47.8458 13.9241 49.4338 13.8342C49.7827 13.7945 50.1361 13.8234 50.4734 13.919C50.8108 14.0147 51.125 14.1751 51.398 14.3911C51.6709 14.607 51.8969 14.874 52.0628 15.1764C52.2285 15.4788 52.3309 15.8106 52.3637 16.1521C52.8214 17.8298 52.8716 19.5889 52.5101 21.2889C51.1917 26.7832 46.6503 28.6719 41.5522 26.912C40.1212 26.4415 38.8665 25.5647 37.9485 24.3937C36.7241 22.9836 35.856 21.3124 35.414 19.5146C35.056 17.9136 35.0952 16.2524 35.5285 14.6693C35.9617 13.0863 36.7764 11.6274 37.9045 10.4144C38.9751 9.09614 40.3646 8.05864 41.9478 7.39536C42.9483 6.85677 44.119 6.70363 45.2294 6.96611C45.4812 7.0342 45.7098 7.16687 45.8915 7.35036C46.0733 7.53386 46.2014 7.76148 46.2627 8.00965C46.324 8.2578 46.3161 8.51746 46.2401 8.76168C46.1639 9.0059 46.0224 9.22579 45.83 9.39854C45.4641 9.72199 45.0667 10.0095 44.6433 10.257C43.3409 11.0671 42.2076 12.111 41.3032 13.3333C40.7104 14.1243 40.3022 15.0326 40.1073 15.9942C39.9123 16.9557 39.9356 17.9474 40.1753 18.8994C40.5075 20.1973 41.2447 21.3624 42.2847 22.2331C45.5076 25.0949 49.6974 22.3333 48.9649 18.4271C47.8956 18.6847 46.958 18.9566 46.0057 19.1854Z" fill="#1D1D21"/>
        <path d="M65.6955 27.2554C60.9344 30.1172 55.5141 27.2554 54.3274 21.246C53.4631 16.9535 55.1038 10.9439 60.8466 8.65456C62.0684 8.17795 63.3936 8.01061 64.6994 8.16807C66.2681 8.44856 67.7073 9.20288 68.8137 10.3247C69.9202 11.4465 70.6384 12.8792 70.8668 14.4209C71.8337 19.5289 69.6363 24.9804 65.6955 27.2554ZM67.351 17.6259C67.3495 16.4373 66.919 15.2871 66.1351 14.3779C65.716 13.8156 65.1102 13.4127 64.421 13.2378C63.7316 13.063 63.0017 13.1271 62.3554 13.4193C59.7771 14.5067 57.9605 18.4558 58.6198 21.3605C58.6701 21.8163 58.8218 22.2559 59.0641 22.6485C59.3065 23.0411 59.6338 23.3773 60.0232 23.6335C60.4124 23.8896 60.8543 24.0597 61.3178 24.1318C61.7815 24.2037 62.2556 24.176 62.707 24.0504C64.0698 23.5854 65.2499 22.7164 66.0824 21.5646C66.915 20.4128 67.3585 19.0358 67.351 17.6259Z" fill="#1D1D21"/>
        <path d="M75.6814 28.4574C75.6096 28.9811 75.3277 29.4555 74.8977 29.7761C74.4677 30.0967 73.925 30.2375 73.3888 30.1673C72.8527 30.0971 72.367 29.8217 72.0387 29.4017C71.7103 28.9818 71.5663 28.4517 71.6382 27.928C71.7101 27.4043 71.992 26.93 72.4219 26.6093C72.8519 26.2886 73.3947 26.148 73.9308 26.2182C74.467 26.2884 74.9527 26.5636 75.281 26.9836C75.6093 27.4036 75.7534 27.9338 75.6814 28.4574ZM74.4069 9.15534C74.6856 8.73973 75.0943 8.42323 75.5722 8.25304C76.05 8.08285 76.5714 8.0681 77.0585 8.21099C77.5538 8.33202 77.9913 8.61553 78.2981 9.01406C78.6047 9.4126 78.7618 9.90196 78.7433 10.4002C78.6787 11.1993 78.5563 11.9931 78.377 12.7753C77.8936 15.4224 77.4248 18.0694 76.9121 20.6879C76.6777 21.7325 76.3701 22.734 76.0331 23.7928C75.9158 24.1238 75.72 24.4229 75.4618 24.6657C75.3012 24.8483 75.0961 24.9883 74.8654 25.0729C74.6347 25.1575 74.3859 25.1839 74.142 25.1497C73.8982 25.1154 73.6669 25.0217 73.47 24.8771C73.2731 24.7324 73.1167 24.5416 73.0153 24.3223C72.8411 23.9288 72.7465 23.506 72.7369 23.0774C72.7369 21.3032 72.7369 19.5147 72.8541 17.726C73.0533 15.1736 73.4449 12.6388 74.0261 10.1426C74.0945 9.80819 74.2234 9.48838 74.4069 9.19827V9.15534Z" fill="#1D1D21"/>
        <path fill-rule="evenodd" clip-rule="evenodd" d="M8.69135 39.9553C8.51838 40.3325 8.47094 40.7529 8.55547 41.1576C8.6117 41.6909 8.73521 42.2156 8.92318 42.7195C9.15786 43.3366 9.42047 43.9468 9.74427 44.6989C9.81873 44.8719 9.89655 45.0526 9.97798 45.2427C10.4146 46.2616 10.9625 47.5637 11.6934 49.4482C11.9002 49.9835 12.0839 50.5233 12.2689 51.0667C12.3436 51.2863 12.4186 51.5066 12.4953 51.7273C12.7705 52.5123 13.2439 53.2175 13.8715 53.7764C14.138 54.0836 14.4914 54.3074 14.8878 54.4194C15.2918 54.5335 15.7216 54.5263 16.1214 54.3986C16.5211 54.2709 16.8723 54.0286 17.1292 53.7032C17.381 53.3843 17.5308 52.9999 17.5599 52.5983C17.7233 51.8161 17.6675 51.005 17.3982 50.2508C16.9708 48.9986 16.4839 47.7446 15.9225 46.5181L15.9199 46.5127C14.9962 44.5937 14.0574 42.688 13.0741 40.7815L13.0667 40.7682C12.7789 40.2715 12.4048 39.8275 11.9613 39.4561C11.6733 39.1246 11.2762 38.901 10.8376 38.8239C10.3896 38.7452 9.92762 38.8245 9.53406 39.0478C9.16176 39.2554 8.86663 39.5732 8.69135 39.9553Z" fill="#1D1D21"/>
        <path fill-rule="evenodd" clip-rule="evenodd" d="M22.7982 35.23C21.3499 34.8637 19.8374 34.8103 18.3661 35.0737C17.2265 35.1833 16.1057 35.44 15.3274 35.9486C14.9315 36.2074 14.6115 36.5398 14.4334 36.9622C14.2544 37.387 14.2316 37.8727 14.3783 38.414C14.6461 39.4054 14.9939 40.3693 15.3405 41.3301L15.3966 41.4857L15.398 41.4891C16.4415 44.2804 17.495 47.0623 18.5581 49.8346C18.6821 50.2715 18.8574 50.6929 19.0805 51.0905L19.0847 51.0978C19.3794 51.5917 19.7575 52.0334 20.2028 52.4044C20.4256 52.6084 20.701 52.7495 20.9997 52.8126C21.3013 52.8761 21.6149 52.8577 21.9065 52.7591C22.1981 52.6605 22.4564 52.4856 22.6532 52.2534C22.8468 52.025 22.9736 51.7499 23.0202 51.457C23.2123 50.6615 23.1508 49.8276 22.8436 49.0672C22.7478 48.8113 22.6726 48.5498 22.5934 48.2745C22.567 48.1827 22.5402 48.0893 22.5119 47.9942C24.9454 47.0651 27.5346 45.8159 28.4451 42.9097C28.8016 41.9054 28.8313 40.8179 28.5301 39.7964C28.2286 38.7737 27.61 37.8672 26.7596 37.2018C25.6021 36.2703 24.2501 35.5972 22.7982 35.23ZM18.7838 38.7947C18.8317 38.7812 18.88 38.7686 18.9284 38.757C20.5127 38.5137 22.1335 38.8379 23.4926 39.6695C24.0915 40.0763 24.3368 40.5283 24.379 40.9633C24.4225 41.4111 24.2558 41.8963 23.9208 42.3628C23.288 43.244 22.1332 43.9493 21.09 44.0808C20.3295 42.3702 19.5572 40.5904 18.7838 38.7947Z" fill="#1D1D21"/>
        <path d="M32.4532 32.0989C34.1778 31.3209 36.3142 31.1866 37.9859 31.7336C38.407 31.8533 38.7722 32.1124 39.0193 32.4665C39.2647 32.8183 39.378 33.2424 39.3402 33.6663C39.3377 33.9414 39.2686 34.2122 39.1384 34.4564C39.006 34.705 38.8142 34.9188 38.5793 35.0798C38.3444 35.2407 38.0733 35.3442 37.7889 35.3811C37.5043 35.4182 37.215 35.3878 36.9451 35.2924L36.9246 35.2852L36.9053 35.2752C36.7672 35.2046 36.6205 35.1515 36.4688 35.1169L36.4592 35.1148C35.2832 34.8097 34.1739 35.3152 33.7687 35.9364C33.5755 36.2325 33.5515 36.5315 33.7125 36.8034C33.8848 37.0947 34.3076 37.4215 35.163 37.6544C35.3983 37.7175 35.6395 37.7784 35.8841 37.8402C36.5605 38.0113 37.2635 38.189 37.9433 38.4353L37.9459 38.4363C41.0819 39.6017 42.2497 42.0154 41.8499 44.2856C41.4544 46.5307 39.5348 48.5738 36.648 49.0558C35.5976 49.2832 34.5044 49.2389 33.4767 48.9273C32.4464 48.6147 31.5177 48.0444 30.7829 47.2727L30.7638 47.2525C30.5318 46.9618 30.3758 46.6202 30.3066 46.2578C30.243 45.9308 30.2765 45.5928 30.4031 45.2836C30.5289 44.9763 30.7417 44.7104 31.0162 44.5166C31.3063 44.2969 31.656 44.1651 32.022 44.1376C32.3867 44.1102 32.7517 44.1877 33.072 44.3602C33.3919 44.5112 33.6895 44.7037 33.9566 44.9327L33.9616 44.9369C34.4341 45.359 35.0058 45.4689 35.554 45.3671C36.1101 45.2637 36.6331 44.9423 36.9695 44.5158C37.3037 44.0921 37.4379 43.5886 37.2786 43.0999C37.1184 42.6077 36.6367 42.0561 35.5783 41.5951C35.3016 41.4803 35.0148 41.3878 34.7163 41.2977C34.6359 41.2734 34.554 41.2492 34.4712 41.2247C34.2506 41.1593 34.0235 41.0919 33.8009 41.0176C33.6476 40.9666 33.4955 40.9182 33.3449 40.8702C32.9332 40.7393 32.5318 40.6116 32.1455 40.4404C31.3048 40.1609 30.5785 39.6241 30.0747 38.9094C29.5687 38.192 29.3142 37.334 29.3488 36.4636C29.3515 34.3425 30.7193 32.8812 32.4532 32.0989Z" fill="#1D1D21"/>
        <path d="M54.3187 31.873C53.9843 31.7135 53.6145 31.6377 53.2427 31.6526C52.8708 31.6676 52.5086 31.7726 52.1888 31.9585C51.871 32.1431 51.6049 32.4016 51.4142 32.711C51.2394 32.9715 51.1184 33.2629 51.0581 33.5688C50.9977 33.8746 50.9992 34.1887 51.0622 34.4937C51.1245 34.8857 51.1936 35.2669 51.2618 35.6428C51.3747 36.2649 51.4845 36.873 51.557 37.4931L51.5597 37.5088C51.7247 38.4811 51.8111 39.4645 51.8188 40.45L51.8195 40.464C51.8759 41.5283 51.5047 42.5719 50.7853 43.3733L50.7739 43.3875C50.5399 43.6805 50.2269 43.9041 49.87 44.0333C49.5133 44.1625 49.1267 44.1922 48.7536 44.1191C48.3805 44.046 48.0357 43.8729 47.7575 43.6192C47.4794 43.3656 47.2787 43.0403 47.1786 42.6818C46.9648 41.9262 46.8411 41.149 46.8097 40.3657L47.1748 34.688C47.1802 34.6139 47.1863 34.5378 47.1926 34.461C47.2065 34.2885 47.2207 34.1129 47.2266 33.9491C47.2352 33.708 47.2279 33.4601 47.1704 33.2255C47.1115 32.9856 46.9996 32.7575 46.8011 32.5632C46.6045 32.3709 46.3391 32.229 46.0052 32.1324C45.4014 31.9617 44.8908 31.9671 44.4653 32.1435C44.0396 32.3199 43.7479 32.6473 43.5415 33.0255C43.3367 33.4006 43.2052 33.8446 43.1056 34.2894C43.0318 34.6194 42.9725 34.9659 42.9161 35.2956C42.8965 35.4093 42.8775 35.5208 42.8582 35.6292L42.8577 35.6324C42.556 37.4409 42.4662 39.2771 42.59 41.1055C42.6131 42.0936 42.8241 43.0689 43.2123 43.9816C43.6503 45.1593 44.4436 46.1797 45.4875 46.9081C46.5336 47.6379 47.782 48.0401 49.0673 48.0613C50.3526 48.0826 51.6142 47.7219 52.6851 47.0271C53.7542 46.3333 54.5827 45.339 55.0611 44.1757C55.7303 42.6937 56.0446 41.0821 55.9797 39.4636C55.9404 38.2819 55.8746 37.0912 55.8091 35.9066C55.7769 35.3254 55.7448 34.7456 55.7161 34.1692C55.7016 33.5913 55.5065 33.0316 55.1568 32.5651C54.9405 32.2702 54.6525 32.0323 54.3187 31.873Z" fill="#1D1D21"/>
        <path d="M66.155 40.7758C66.1211 40.8179 66.0854 40.8615 66.048 40.9068C65.776 39.3742 65.5239 37.842 65.2714 36.3076C65.1809 35.757 65.0899 35.2041 64.9983 34.6528L64.988 34.5914L64.9546 34.5382C64.8916 34.4382 64.8853 34.3401 64.8853 34.131V34.1068L64.8815 34.0829C64.8132 33.651 64.6132 33.2491 64.3076 32.9298C64.003 32.6113 63.6072 32.3896 63.1719 32.2934C62.7374 32.1887 62.2807 32.2118 61.8595 32.3598C61.4393 32.5074 61.0731 32.7728 60.8065 33.1226C60.5848 33.391 60.4031 33.6887 60.267 34.0068C59.958 34.6921 59.6463 35.3791 59.3338 36.068L59.3284 36.0799C58.5481 37.7997 57.7625 39.531 56.9999 41.2759L56.9975 41.2816C56.5293 42.413 56.1428 43.6052 55.7576 44.7937C55.6807 45.0309 55.6038 45.268 55.5263 45.5045C55.3872 45.8796 55.3264 46.2779 55.3473 46.6762C55.322 47.0327 55.4093 47.3884 55.5978 47.6951C55.79 48.008 56.0778 48.2542 56.4207 48.3992C56.7841 48.5548 57.1904 48.5878 57.5753 48.493C57.9594 48.3984 58.3004 48.1819 58.5448 47.8776C58.8568 47.5026 59.1253 47.0937 59.3442 46.6605C59.9903 45.3696 60.6078 44.0631 61.2224 42.7622C61.4603 42.259 61.6914 41.8083 61.9543 41.3175C61.9724 41.3781 61.9908 41.4371 62.0098 41.4962C62.2854 42.6812 62.7505 43.8162 63.3881 44.8596C63.5087 45.0806 63.6768 45.2738 63.8807 45.4258C64.0871 45.5797 64.3253 45.6877 64.5788 45.7426C64.8322 45.7975 65.0949 45.7977 65.3485 45.7433C65.6017 45.6891 65.8406 45.581 66.0472 45.4278L66.4559 45.129L69.6285 42.5189L69.4409 43.6867C69.1833 45.2918 68.9278 46.8836 68.6563 48.4757C68.4786 49.1814 68.4789 49.9185 68.657 50.624C68.7342 51.021 68.9308 51.3865 69.2217 51.6739C69.5151 51.9636 69.8908 52.1605 70.3001 52.239C70.7095 52.3175 71.1336 52.274 71.5173 52.1141C71.8954 51.9567 72.2171 51.6933 72.4419 51.3576C72.965 50.7237 73.2906 49.9563 73.38 49.1467C73.5147 48.0034 73.6668 46.8444 73.819 45.6859C73.9943 44.3505 74.1696 43.0155 74.3177 41.7061L74.3182 41.7021C74.4607 40.2687 74.5296 38.8295 74.5248 37.3894C74.556 36.9343 74.44 36.481 74.1928 36.0935C73.9448 35.7047 73.5775 35.4025 73.1433 35.2295C72.6917 35.029 72.1861 34.9754 71.7009 35.0767C71.219 35.1774 70.7827 35.4255 70.4554 35.785C69.8702 36.3136 69.3213 36.8792 68.8121 37.4783L68.8086 37.4823C68.2527 38.1589 67.7006 38.8488 67.152 39.5342C66.8185 39.9509 66.4859 40.3665 66.155 40.7758Z" fill="#1D1D21"/>
    </g>
    <defs>
        <clipPath id="clip0_1030_2112">
            <rect width="86" height="54" fill="white" transform="translate(0.799805 0.5)"/>
        </clipPath>
    </defs>
</svg>