<svg xmlns="http://www.w3.org/2000/svg" width="87" height="55" viewBox="0 0 87 55" fill="none">
    <g clip-path="url(#clip0_380_176)">
        <path d="M81.3053 7.13768C81.3053 7.20064 81.3053 7.27934 81.2892 7.32657C81.2086 7.94046 81.2086 8.55436 81.2569 9.184C81.2892 9.34141 81.3214 9.49882 81.4504 9.62475C81.6599 9.86085 81.9822 9.81364 82.1112 9.5303C82.1757 9.38863 82.1756 9.24696 82.1433 9.10529C81.9821 8.50713 81.95 7.8775 81.9339 7.2636C81.9339 7.23212 81.9339 7.18489 81.9339 7.13768C82.1111 7.12193 82.2723 7.10619 82.4173 7.10619C82.5302 7.09045 82.6269 7.07471 82.7075 7.02748C82.9492 6.90156 82.9492 6.63397 82.6913 6.50804C82.5946 6.46081 82.4657 6.44507 82.3529 6.44507C81.95 6.46081 81.5471 6.46081 81.1441 6.46081C80.9992 6.46081 80.8541 6.47656 80.709 6.49229C80.6284 6.50804 80.5317 6.50804 80.4673 6.55527C80.3544 6.60248 80.29 6.68118 80.29 6.79137C80.3061 6.90156 80.3544 6.96452 80.4673 7.01175C80.5317 7.05897 80.6123 7.07471 80.6929 7.07471C80.8863 7.09045 81.0959 7.12193 81.3053 7.13768ZM85.7373 7.86176C85.7373 7.8775 85.7534 7.89324 85.7534 7.89324C85.8179 8.31824 85.8824 8.72751 85.9307 9.13677C85.9469 9.27844 85.963 9.40437 86.0597 9.51455C86.2691 9.78215 86.5915 9.75067 86.7365 9.46734C86.801 9.32566 86.8171 9.184 86.7849 9.02659C86.6882 8.55436 86.6398 8.08213 86.5431 7.62564C86.4786 7.3423 86.3981 7.07471 86.3175 6.82286C86.2691 6.66545 86.1563 6.55525 85.963 6.53952C85.7696 6.50804 85.6245 6.60248 85.5439 6.74415C85.4472 6.87007 85.3666 6.996 85.3021 7.13768C85.1893 7.38953 85.0926 7.64139 84.9638 7.8775C84.9476 7.94046 84.9315 7.98769 84.8993 8.0349C84.8832 8.00342 84.8671 7.98769 84.8671 7.98769C84.6575 7.59416 84.4641 7.20064 84.2546 6.82286C84.2223 6.79137 84.2062 6.75989 84.1901 6.72841C84.0934 6.58674 83.9807 6.50804 83.8034 6.50804C83.6422 6.52377 83.5132 6.61822 83.4327 6.75989C83.4004 6.82286 83.4004 6.87007 83.3843 6.93304C83.3198 7.43675 83.2392 7.94046 83.1748 8.44417C83.1425 8.72751 83.1264 9.01084 83.1264 9.29418C83.1103 9.35714 83.1264 9.43585 83.1586 9.49882C83.1909 9.62474 83.2876 9.70345 83.4165 9.71919C83.5777 9.73493 83.6905 9.68771 83.7389 9.56178C83.7872 9.46734 83.8034 9.38863 83.8195 9.30993C83.884 9.02659 83.9323 8.75899 83.9807 8.4914C84.0129 8.33399 84.0289 8.20806 84.0774 8.0349C84.1095 8.09787 84.1417 8.1451 84.174 8.19231C84.319 8.38121 84.4641 8.5701 84.6414 8.72751C84.8187 8.85343 84.9638 8.8377 85.1087 8.69602C85.141 8.66454 85.1571 8.64881 85.1893 8.61732C85.3344 8.39695 85.5117 8.17658 85.6567 7.9562C85.689 7.92472 85.7051 7.89324 85.7373 7.86176Z" fill="white"/>
        <path d="M48.6026 7.44694C48.4905 7.74609 48.4691 7.96161 48.5209 8.14074C48.578 8.38433 48.7263 8.46408 48.9275 8.40213C50.8205 7.94493 54.9715 9.24265 56.5083 9.60434C56.8707 9.68028 57.1656 9.22331 56.9183 8.8136C56.5573 8.41682 52.4082 6.71806 50.825 6.62544C50.2045 6.59119 49.0951 6.43577 48.6026 7.44694Z" fill="white"/>
        <path d="M64.8261 1.94795C65.0278 2.06168 65.1406 2.17017 65.1963 2.29139C65.2792 2.4504 65.2354 2.56041 65.0961 2.61655C63.8448 3.21303 62.1797 5.78098 61.5076 6.66664C61.3447 6.87038 60.9689 6.75199 60.9121 6.41694C60.9238 6.03811 62.3998 3.2513 63.2235 2.49227C63.5473 2.19592 64.0821 1.61445 64.8261 1.94795Z" fill="white"/>
        <path d="M54.8606 0.683841C55.103 0.505423 55.3549 0.4429 55.4835 0.558849C57.3715 2.13583 58.3726 4.63312 58.9926 6.91934C59.0159 6.9726 59.0174 7.04903 58.9987 7.12877C58.991 7.19692 58.94 7.26891 58.859 7.32462C58.7725 7.38612 58.6981 7.40485 58.6631 7.35185C57.8356 6.25262 53.1097 1.9757 54.8606 0.683841Z" fill="white"/>
        <path d="M14.8814 28.0247C15.3339 27.6957 15.8258 27.4218 16.3464 27.2092C16.891 27.0571 17.4715 27.0823 18.0002 27.2811C18.5287 27.4799 18.9768 27.8414 19.2763 28.3109C19.5442 28.7793 19.649 29.32 19.5751 29.8516C19.5011 30.3832 19.2523 30.8769 18.8661 31.2585C18.5667 31.5677 18.2267 31.8371 17.8553 32.0598C16.1999 33.1043 14.5298 34.0915 12.8598 35.136C12.5181 35.3974 12.1555 35.632 11.7757 35.8372C11.1979 36.1186 10.5377 36.1939 9.90902 36.0502C9.28038 35.9066 8.72293 35.5528 8.33305 35.0502C8.0416 34.6943 7.79563 34.3052 7.60057 33.8912C6.01841 30.6432 4.37767 27.4095 2.8541 24.1042C2.15092 22.6734 1.57959 21.0279 1.0229 19.4397C0.782057 18.9783 0.735025 18.4433 0.891823 17.9484C1.04862 17.4536 1.39688 17.0381 1.86251 16.7901C2.32815 16.5422 2.87443 16.4816 3.38517 16.621C3.89591 16.7604 4.33082 17.089 4.5974 17.5367C5.41679 18.6003 6.14213 19.73 6.76554 20.9135C8.3477 23.7752 9.85662 26.6368 11.3802 29.4126C11.4689 29.5661 11.5667 29.7141 11.6732 29.8562C12.8199 29.3853 13.8985 28.7696 14.8814 28.0247Z" fill="white"/>
        <path d="M31.2396 27.0265C27.6212 31.1615 21.5563 30.117 18.5092 24.7943C16.341 21.0169 15.9601 14.7784 20.6774 10.8436C21.6847 10.0198 22.8892 9.45866 24.1785 9.21245C25.7595 8.99108 27.3716 9.26349 28.7845 9.99075C30.1973 10.718 31.3387 11.8629 32.0455 13.2617C34.6237 17.8405 34.2575 23.6782 31.2396 27.0265ZM29.7747 17.3826C29.3903 16.2574 28.6191 15.2968 27.5919 14.6639C27.0106 14.2593 26.3043 14.0625 25.592 14.1068C24.8796 14.1512 24.2046 14.4338 23.6805 14.9072C21.5856 16.7244 21.1461 21.0312 22.6696 23.5924C22.8639 24.0101 23.149 24.3812 23.5054 24.6799C23.8618 24.9786 24.2808 25.1977 24.7329 25.3217C25.185 25.4457 25.6593 25.4718 26.1229 25.398C26.5864 25.3241 27.0277 25.1523 27.4162 24.8945C28.5518 24.0345 29.3849 22.8504 29.7996 21.5068C30.2145 20.1631 30.1904 18.7265 29.7308 17.3969L29.7747 17.3826Z" fill="white"/>
        <path d="M46.0068 19.1854C45.6364 19.2633 45.2537 19.2679 44.8813 19.1991C44.509 19.1302 44.1545 18.9895 43.8387 18.7849C43.5624 18.6305 43.3246 18.4183 43.1422 18.1634C42.9601 17.9085 42.8379 17.6174 42.7847 17.3108C42.7314 17.0043 42.7485 16.6902 42.8344 16.3908C42.9204 16.0915 43.0733 15.8145 43.2821 15.5797C43.6457 15.108 44.162 14.7702 44.747 14.6211C46.2745 14.1881 47.8469 13.9241 49.4349 13.8342C49.7838 13.7945 50.1372 13.8234 50.4745 13.919C50.8118 14.0147 51.1261 14.1751 51.3991 14.3911C51.672 14.607 51.898 14.874 52.0639 15.1764C52.2296 15.4788 52.332 15.8106 52.3648 16.1521C52.8225 17.8298 52.8727 19.5889 52.5112 21.2889C51.1928 26.7832 46.6514 28.6719 41.5533 26.912C40.1223 26.4415 38.8676 25.5647 37.9496 24.3937C36.7252 22.9836 35.8571 21.3124 35.4151 19.5146C35.0571 17.9136 35.0963 16.2524 35.5296 14.6693C35.9628 13.0863 36.7775 11.6274 37.9056 10.4144C38.9762 9.09614 40.3657 8.05864 41.9489 7.39536C42.9494 6.85677 44.1201 6.70363 45.2304 6.96611C45.4823 7.0342 45.7109 7.16687 45.8926 7.35036C46.0744 7.53386 46.2025 7.76148 46.2638 8.00965C46.3251 8.2578 46.3172 8.51746 46.2412 8.76168C46.165 9.0059 46.0235 9.22579 45.8311 9.39854C45.4652 9.72199 45.0678 10.0095 44.6444 10.257C43.342 11.0671 42.2087 12.111 41.3043 13.3333C40.7115 14.1243 40.3033 15.0326 40.1084 15.9942C39.9134 16.9557 39.9367 17.9474 40.1764 18.8994C40.5086 20.1973 41.2458 21.3624 42.2858 22.2331C45.5087 25.0949 49.6985 22.3333 48.966 18.4271C47.8967 18.6847 46.9591 18.9566 46.0068 19.1854Z" fill="white"/>
        <path d="M65.6965 27.2554C60.9354 30.1172 55.515 27.2554 54.3284 21.246C53.4641 16.9535 55.1048 10.9439 60.8475 8.65456C62.0694 8.17795 63.3946 8.01061 64.7003 8.16807C66.2691 8.44856 67.7082 9.20288 68.8147 10.3247C69.9212 11.4465 70.6394 12.8792 70.8678 14.4209C71.8347 19.5289 69.6372 24.9804 65.6965 27.2554ZM67.352 17.6259C67.3505 16.4373 66.92 15.2871 66.136 14.3779C65.717 13.8156 65.1112 13.4127 64.4219 13.2378C63.7326 13.063 63.0027 13.1271 62.3563 13.4193C59.7781 14.5067 57.9615 18.4558 58.6208 21.3605C58.6711 21.8163 58.8227 22.2559 59.0651 22.6485C59.3075 23.0411 59.6348 23.3773 60.0241 23.6335C60.4134 23.8896 60.8553 24.0597 61.3188 24.1318C61.7825 24.2037 62.2566 24.176 62.708 24.0504C64.0708 23.5854 65.2509 22.7164 66.0833 21.5646C66.9159 20.4128 67.3595 19.0358 67.352 17.6259Z" fill="white"/>
        <path d="M75.6824 28.4574C75.6105 28.9811 75.3287 29.4555 74.8987 29.7761C74.4687 30.0967 73.9259 30.2375 73.3898 30.1673C72.8536 30.0971 72.368 29.8217 72.0397 29.4017C71.7113 28.9818 71.5673 28.4517 71.6392 27.928C71.7111 27.4043 71.993 26.93 72.4229 26.6093C72.8529 26.2886 73.3957 26.148 73.9318 26.2182C74.468 26.2884 74.9536 26.5636 75.282 26.9836C75.6103 27.4036 75.7544 27.9338 75.6824 28.4574ZM74.4079 9.15534C74.6865 8.73973 75.0953 8.42323 75.5732 8.25304C76.051 8.08285 76.5724 8.0681 77.0595 8.21099C77.5548 8.33202 77.9923 8.61553 78.299 9.01406C78.6057 9.4126 78.7628 9.90196 78.7443 10.4002C78.6796 11.1993 78.5573 11.9931 78.378 12.7753C77.8946 15.4224 77.4258 18.0694 76.9131 20.6879C76.6787 21.7325 76.371 22.734 76.034 23.7928C75.9168 24.1238 75.721 24.4229 75.4627 24.6657C75.3022 24.8483 75.0971 24.9883 74.8664 25.0729C74.6357 25.1575 74.3869 25.1839 74.143 25.1497C73.8991 25.1154 73.6679 25.0217 73.471 24.8771C73.274 24.7324 73.1177 24.5416 73.0163 24.3223C72.8421 23.9288 72.7475 23.506 72.7379 23.0774C72.7379 21.3032 72.7379 19.5147 72.8551 17.726C73.0543 15.1736 73.4459 12.6388 74.027 10.1426C74.0955 9.80819 74.2243 9.48838 74.4079 9.19827V9.15534Z" fill="white"/>
        <path fill-rule="evenodd" clip-rule="evenodd" d="M8.69232 39.9553C8.51935 40.3325 8.47192 40.7529 8.55644 41.1576C8.61268 41.6909 8.73619 42.2156 8.92416 42.7195C9.15884 43.3366 9.42145 43.9468 9.74525 44.6989C9.81971 44.8719 9.89753 45.0526 9.97896 45.2427C10.4156 46.2616 10.9635 47.5637 11.6943 49.4482C11.9012 49.9835 12.0849 50.5233 12.2698 51.0667C12.3446 51.2863 12.4196 51.5066 12.4963 51.7273C12.7715 52.5123 13.2449 53.2175 13.8725 53.7764C14.1389 54.0836 14.4924 54.3074 14.8887 54.4194C15.2928 54.5335 15.7226 54.5263 16.1223 54.3986C16.5221 54.2709 16.8732 54.0286 17.1301 53.7032C17.382 53.3843 17.5318 52.9999 17.5609 52.5983C17.7243 51.8161 17.6685 51.005 17.3992 50.2508C16.9718 48.9986 16.4849 47.7446 15.9234 46.5181L15.9209 46.5127C14.9972 44.5937 14.0583 42.688 13.075 40.7815L13.0677 40.7682C12.7798 40.2715 12.4057 39.8275 11.9622 39.4561C11.6743 39.1246 11.2771 38.901 10.8385 38.8239C10.3906 38.7452 9.9286 38.8245 9.53504 39.0478C9.16273 39.2554 8.86761 39.5732 8.69232 39.9553Z" fill="white"/>
        <path fill-rule="evenodd" clip-rule="evenodd" d="M22.7994 35.23C21.3512 34.8637 19.8387 34.8103 18.3673 35.0737C17.2277 35.1833 16.1069 35.44 15.3286 35.9486C14.9327 36.2074 14.6127 36.5398 14.4347 36.9622C14.2557 37.387 14.2328 37.8727 14.3795 38.414C14.6473 39.4054 14.9951 40.3693 15.3417 41.3301L15.3979 41.4857L15.3992 41.4891C16.4428 44.2804 17.4963 47.0623 18.5594 49.8346C18.6833 50.2715 18.8586 50.6929 19.0817 51.0905L19.0859 51.0978C19.3807 51.5917 19.7587 52.0334 20.204 52.4044C20.4268 52.6084 20.7022 52.7495 21.0009 52.8126C21.3025 52.8761 21.6162 52.8577 21.9077 52.7591C22.1994 52.6605 22.4576 52.4856 22.6544 52.2534C22.848 52.025 22.9748 51.7499 23.0214 51.457C23.2135 50.6615 23.152 49.8276 22.8449 49.0672C22.749 48.8113 22.6738 48.5498 22.5946 48.2745C22.5682 48.1827 22.5414 48.0893 22.5131 47.9942C24.9466 47.0651 27.5358 45.8159 28.4463 42.9097C28.8028 41.9054 28.8325 40.8179 28.5313 39.7964C28.2298 38.7737 27.6112 37.8672 26.7608 37.2018C25.6034 36.2703 24.2513 35.5972 22.7994 35.23ZM18.785 38.7947C18.833 38.7812 18.8812 38.7686 18.9296 38.757C20.5139 38.5137 22.1347 38.8379 23.4938 39.6695C24.0927 40.0763 24.3381 40.5283 24.3802 40.9633C24.4237 41.4111 24.257 41.8963 23.9221 42.3628C23.2892 43.244 22.1344 43.9493 21.0912 44.0808C20.3307 42.3702 19.5584 40.5904 18.785 38.7947Z" fill="white"/>
        <path d="M32.4542 32.0989C34.1788 31.3209 36.3152 31.1866 37.9869 31.7336C38.4079 31.8533 38.7732 32.1124 39.0203 32.4665C39.2657 32.8183 39.379 33.2424 39.3412 33.6663C39.3387 33.9414 39.2695 34.2122 39.1394 34.4564C39.007 34.705 38.8152 34.9188 38.5803 35.0798C38.3454 35.2407 38.0743 35.3442 37.7898 35.3811C37.5053 35.4182 37.216 35.3878 36.9461 35.2924L36.9255 35.2852L36.9063 35.2752C36.7682 35.2046 36.6215 35.1515 36.4697 35.1169L36.4602 35.1148C35.2842 34.8097 34.1749 35.3152 33.7697 35.9364C33.5765 36.2325 33.5525 36.5315 33.7134 36.8034C33.8858 37.0947 34.3086 37.4215 35.164 37.6544C35.3993 37.7175 35.6405 37.7784 35.8851 37.8402C36.5615 38.0113 37.2645 38.189 37.9443 38.4353L37.9469 38.4363C41.0829 39.6017 42.2507 42.0154 41.8509 44.2856C41.4554 46.5307 39.5358 48.5738 36.649 49.0558C35.5986 49.2832 34.5054 49.2389 33.4777 48.9273C32.4474 48.6147 31.5187 48.0444 30.7839 47.2727L30.7647 47.2525C30.5328 46.9618 30.3768 46.6202 30.3076 46.2578C30.244 45.9308 30.2775 45.5928 30.404 45.2836C30.5298 44.9763 30.7426 44.7104 31.0172 44.5166C31.3073 44.2969 31.6569 44.1651 32.0229 44.1376C32.3877 44.1102 32.7527 44.1877 33.073 44.3602C33.3929 44.5112 33.6905 44.7037 33.9576 44.9327L33.9626 44.9369C34.4351 45.359 35.0068 45.4689 35.5549 45.3671C36.1111 45.2637 36.6341 44.9423 36.9705 44.5158C37.3047 44.0921 37.4388 43.5886 37.2796 43.0999C37.1194 42.6077 36.6377 42.0561 35.5793 41.5951C35.3026 41.4803 35.0157 41.3878 34.7173 41.2977C34.6368 41.2734 34.555 41.2492 34.4722 41.2247C34.2516 41.1593 34.0245 41.0919 33.8019 41.0176C33.6486 40.9666 33.4965 40.9182 33.3459 40.8702C32.9342 40.7393 32.5328 40.6116 32.1465 40.4404C31.3058 40.1609 30.5795 39.6241 30.0756 38.9094C29.5697 38.192 29.3152 37.334 29.3498 36.4636C29.3525 34.3425 30.7203 32.8812 32.4542 32.0989Z" fill="white"/>
        <path d="M54.3197 31.873C53.9853 31.7135 53.6155 31.6377 53.2437 31.6526C52.8718 31.6676 52.5096 31.7726 52.1898 31.9585C51.872 32.1431 51.6059 32.4016 51.4152 32.711C51.2404 32.9715 51.1194 33.2629 51.059 33.5688C50.9987 33.8746 51.0002 34.1887 51.0632 34.4937C51.1255 34.8857 51.1946 35.2669 51.2627 35.6428C51.3756 36.2649 51.4855 36.873 51.558 37.4931L51.5607 37.5088C51.7257 38.4811 51.812 39.4645 51.8198 40.45L51.8205 40.464C51.8769 41.5283 51.5056 42.5719 50.7863 43.3733L50.7749 43.3875C50.5408 43.6805 50.2279 43.9041 49.871 44.0333C49.5142 44.1625 49.1277 44.1922 48.7546 44.1191C48.3815 44.046 48.0366 43.8729 47.7585 43.6192C47.4803 43.3656 47.2797 43.0403 47.1796 42.6818C46.9658 41.9262 46.8421 41.149 46.8106 40.3657L47.1758 34.688C47.1812 34.6139 47.1873 34.5378 47.1936 34.461C47.2075 34.2885 47.2217 34.1129 47.2276 33.9491C47.2362 33.708 47.2288 33.4601 47.1713 33.2255C47.1125 32.9856 47.0006 32.7575 46.802 32.5632C46.6055 32.3709 46.3401 32.229 46.0062 32.1324C45.4023 31.9617 44.8917 31.9671 44.4663 32.1435C44.0406 32.3199 43.7489 32.6473 43.5425 33.0255C43.3377 33.4006 43.2061 33.8446 43.1066 34.2894C43.0328 34.6194 42.9734 34.9659 42.9171 35.2956C42.8975 35.4093 42.8785 35.5208 42.8592 35.6292L42.8587 35.6324C42.557 37.4409 42.4671 39.2771 42.591 41.1055C42.6141 42.0936 42.825 43.0689 43.2133 43.9816C43.6512 45.1593 44.4445 46.1797 45.4884 46.9081C46.5346 47.6379 47.7829 48.0401 49.0683 48.0613C50.3536 48.0826 51.6152 47.7219 52.686 47.0271C53.7551 46.3333 54.5837 45.339 55.0621 44.1757C55.7313 42.6937 56.0456 41.0821 55.9807 39.4636C55.9414 38.2819 55.8755 37.0912 55.8101 35.9066C55.7779 35.3254 55.7458 34.7456 55.717 34.1692C55.7025 33.5913 55.5074 33.0316 55.1578 32.5651C54.9414 32.2702 54.6535 32.0323 54.3197 31.873Z" fill="white"/>
        <path d="M66.1558 40.7758C66.1219 40.8179 66.0861 40.8615 66.0488 40.9068C65.7768 39.3742 65.5247 37.842 65.2722 36.3076C65.1816 35.757 65.0906 35.2041 64.9991 34.6528L64.9888 34.5914L64.9553 34.5382C64.8923 34.4382 64.886 34.3401 64.886 34.131V34.1068L64.8822 34.0829C64.8139 33.651 64.6139 33.2491 64.3084 32.9298C64.0037 32.6113 63.608 32.3896 63.1727 32.2934C62.7381 32.1887 62.2815 32.2118 61.8602 32.3598C61.44 32.5074 61.0738 32.7728 60.8072 33.1226C60.5856 33.391 60.4038 33.6887 60.2677 34.0068C59.9587 34.6921 59.647 35.3791 59.3345 36.068L59.3291 36.0799C58.5488 37.7997 57.7633 39.531 57.0006 41.2759L56.9982 41.2816C56.53 42.413 56.1435 43.6052 55.7584 44.7937C55.6815 45.0309 55.6046 45.268 55.527 45.5045C55.388 45.8796 55.3271 46.2779 55.348 46.6762C55.3227 47.0327 55.4101 47.3884 55.5985 47.6951C55.7907 48.008 56.0785 48.2542 56.4214 48.3992C56.7848 48.5548 57.1911 48.5878 57.576 48.493C57.9601 48.3984 58.3011 48.1819 58.5455 47.8776C58.8576 47.5026 59.126 47.0937 59.3449 46.6605C59.991 45.3696 60.6085 44.0631 61.2232 42.7622C61.461 42.259 61.6921 41.8083 61.955 41.3175C61.9731 41.3781 61.9915 41.4371 62.0106 41.4962C62.2861 42.6812 62.7513 43.8162 63.3888 44.8596C63.5094 45.0806 63.6775 45.2738 63.8814 45.4258C64.0878 45.5797 64.3261 45.6877 64.5795 45.7426C64.833 45.7975 65.0956 45.7977 65.3492 45.7433C65.6024 45.6891 65.8414 45.581 66.0479 45.4278L66.4567 45.129L69.6292 42.5189L69.4416 43.6867C69.1841 45.2918 68.9285 46.8836 68.657 48.4757C68.4794 49.1814 68.4796 49.9185 68.6578 50.624C68.7349 51.021 68.9315 51.3865 69.2224 51.6739C69.5158 51.9636 69.8915 52.1605 70.3008 52.239C70.7102 52.3175 71.1343 52.274 71.518 52.1141C71.8961 51.9567 72.2178 51.6933 72.4426 51.3576C72.9657 50.7237 73.2913 49.9563 73.3808 49.1467C73.5154 48.0034 73.6675 46.8444 73.8197 45.6859C73.995 44.3505 74.1704 43.0155 74.3184 41.7061L74.3189 41.7021C74.4614 40.2687 74.5303 38.8295 74.5255 37.3894C74.5567 36.9343 74.4408 36.481 74.1936 36.0935C73.9455 35.7047 73.5782 35.4025 73.144 35.2295C72.6924 35.029 72.1868 34.9754 71.7017 35.0767C71.2197 35.1774 70.7834 35.4255 70.4561 35.785C69.871 36.3136 69.322 36.8792 68.8128 37.4783L68.8094 37.4823C68.2534 38.1589 67.7013 38.8488 67.1528 39.5342C66.8192 39.9509 66.4866 40.3665 66.1558 40.7758Z" fill="white"/>
    </g>
    <defs>
        <clipPath id="clip0_380_176">
            <rect width="86" height="54" fill="white" transform="translate(0.800781 0.5)"/>
        </clipPath>
    </defs>
</svg>
