<svg xmlns="http://www.w3.org/2000/svg" width="188" height="37" viewBox="0 0 188 37" fill="none">
    <path d="M74.3742 7.85791H70.4507V25.5617H81.3122V22.0928H74.3742V7.85791Z" fill="#1D1D21"/>
    <path d="M81.6868 19.5569C81.6868 23.3369 84.2227 25.8489 88.0505 25.8489C91.8544 25.8489 94.3904 23.3369 94.3904 19.5569C94.3904 15.7768 91.8544 13.2408 88.0505 13.2408C84.2227 13.2408 81.6868 15.7768 81.6868 19.5569ZM85.3949 19.5329C85.3949 17.7386 86.4477 16.5424 88.0505 16.5424C89.6295 16.5424 90.6822 17.7386 90.6822 19.5329C90.6822 21.3512 89.6295 22.5474 88.0505 22.5474C86.4477 22.5474 85.3949 21.3512 85.3949 19.5329Z" fill="#1D1D21"/>
    <path d="M94.9836 19.3654C94.9836 22.9779 97.3283 25.4181 100.654 25.4181C102.257 25.4181 103.644 24.8439 104.338 23.911V25.5617C104.338 27.2125 103.309 28.3129 101.491 28.3129C99.8641 28.3129 98.7397 27.5474 98.668 26.1837H94.9358C95.2707 29.4614 97.8067 31.6623 101.276 31.6623C105.367 31.6623 107.951 29.0068 107.951 24.7961V13.5997H104.625L104.434 14.8198C103.764 13.8389 102.352 13.193 100.726 13.193C97.376 13.193 94.9836 15.705 94.9836 19.3654ZM98.7158 19.2697C98.7158 17.5471 99.8641 16.3988 101.324 16.3988C103.022 16.3988 104.266 17.5232 104.266 19.2697C104.266 21.0162 103.046 22.2123 101.347 22.2123C99.8881 22.2123 98.7158 21.0162 98.7158 19.2697Z" fill="#1D1D21"/>
    <path d="M109.024 19.5569C109.024 23.3369 111.56 25.8489 115.388 25.8489C119.192 25.8489 121.728 23.3369 121.728 19.5569C121.728 15.7768 119.192 13.2408 115.388 13.2408C111.56 13.2408 109.024 15.7768 109.024 19.5569ZM112.732 19.5329C112.732 17.7386 113.784 16.5424 115.388 16.5424C116.966 16.5424 118.019 17.7386 118.019 19.5329C118.019 21.3512 116.966 22.5474 115.388 22.5474C113.784 22.5474 112.732 21.3512 112.732 19.5329Z" fill="#1D1D21"/>
    <path d="M124.904 11.7336C126.052 11.7336 126.985 10.8005 126.985 9.62827C126.985 8.45598 126.052 7.54688 124.904 7.54688C123.732 7.54688 122.799 8.45598 122.799 9.62827C122.799 10.8005 123.732 11.7336 124.904 11.7336ZM123.038 25.5617H126.747V13.5997H123.038V25.5617Z" fill="#1D1D21"/>
    <path d="M128.905 31.3035H132.542V24.3656C133.235 25.2747 134.814 25.8967 136.465 25.8967C140.029 25.8967 142.183 23.1694 142.087 19.3893C141.991 15.5376 139.766 13.2169 136.441 13.2169C134.742 13.2169 133.14 13.9586 132.469 15.0591L132.278 13.5997H128.905V31.3035ZM132.613 19.5807C132.613 17.7865 133.809 16.5903 135.532 16.5903C137.278 16.5903 138.379 17.8103 138.379 19.5807C138.379 21.3512 137.278 22.5712 135.532 22.5712C133.809 22.5712 132.613 21.375 132.613 19.5807Z" fill="#1D1D21"/>
    <path d="M142.48 21.7816C142.575 24.198 144.49 25.8726 147.504 25.8726C150.399 25.8726 152.409 24.3415 152.409 21.8773C152.409 20.107 151.356 18.9347 149.393 18.4561L147.265 17.9298C146.5 17.7385 146.021 17.547 146.021 16.925C146.021 16.303 146.523 15.8963 147.265 15.8963C148.102 15.8963 148.652 16.4465 148.629 17.2599H151.954C151.858 14.7718 149.968 13.2168 147.336 13.2168C144.681 13.2168 142.696 14.7958 142.696 17.1882C142.696 18.7911 143.581 20.107 145.949 20.729L148.054 21.2792C148.676 21.4467 148.939 21.7337 148.939 22.1404C148.939 22.7386 148.389 23.1214 147.456 23.1214C146.379 23.1214 145.805 22.619 145.805 21.7816H142.48Z" fill="#1D1D21"/>
    <path d="M158.048 25.8727C159.508 25.8727 160.967 25.2028 161.708 24.222L161.948 25.5618H165.417V13.5997H161.732V19.82C161.732 21.6142 161.207 22.5951 159.508 22.5951C158.191 22.5951 157.33 21.9971 157.33 19.7721V13.5997H153.646V21.1118C153.646 23.9589 155.225 25.8727 158.048 25.8727Z" fill="#1D1D21"/>
    <path d="M171.259 25.5617V19.0305C171.259 17.0208 172.336 16.4466 173.388 16.4466C174.56 16.4466 175.326 17.1644 175.326 18.6477V25.5617H178.962V19.0305C178.962 16.9969 180.015 16.4227 181.068 16.4227C182.24 16.4227 183.029 17.1404 183.029 18.6477V25.5617H186.619V17.7385C186.619 15.0112 185.183 13.193 182.096 13.193C180.374 13.193 178.962 14.0302 178.34 15.3222C177.623 14.0302 176.379 13.193 174.393 13.193C173.077 13.193 171.857 13.791 171.14 14.748L170.996 13.5997H167.55V25.5617H171.259Z" fill="#1D1D21"/>
    <path d="M0.35083 18.5C0.35083 8.82118 8.19704 0.974976 17.8758 0.974976H40.8774C50.5563 0.974976 58.4024 8.82118 58.4024 18.5V36.025H17.8758C8.19704 36.025 0.35083 28.1788 0.35083 18.5Z" fill="#1D1D21"/>
    <path d="M40.8778 7.54688H17.8762C11.827 7.54688 6.9231 12.4508 6.9231 18.5C6.9231 24.5493 11.827 29.4531 17.8762 29.4531H40.8778C46.927 29.4531 51.8309 24.5493 51.8309 18.5C51.8309 12.4508 46.927 7.54688 40.8778 7.54688Z" fill="white"/>
    <path d="M17.876 23.9766C20.9006 23.9766 23.3525 21.5246 23.3525 18.5C23.3525 15.4754 20.9006 13.0234 17.876 13.0234C14.8514 13.0234 12.3994 15.4754 12.3994 18.5C12.3994 21.5246 14.8514 23.9766 17.876 23.9766Z" fill="#1D1D21"/>
    <path d="M15.6852 17.4046C16.2901 17.4046 16.7805 16.9142 16.7805 16.3093C16.7805 15.7044 16.2901 15.214 15.6852 15.214C15.0802 15.214 14.5898 15.7044 14.5898 16.3093C14.5898 16.9142 15.0802 17.4046 15.6852 17.4046Z" fill="#1D1D21"/>
    <path d="M41.9729 23.9766C44.9975 23.9766 47.4495 21.5246 47.4495 18.5C47.4495 15.4754 44.9975 13.0234 41.9729 13.0234C38.9483 13.0234 36.4963 15.4754 36.4963 18.5C36.4963 21.5246 38.9483 23.9766 41.9729 23.9766Z" fill="#1D1D21"/>
    <path d="M39.7818 17.4046C40.3868 17.4046 40.8771 16.9142 40.8771 16.3093C40.8771 15.7044 40.3868 15.214 39.7818 15.214C39.1769 15.214 38.6865 15.7044 38.6865 16.3093C38.6865 16.9142 39.1769 17.4046 39.7818 17.4046Z" fill="#1D1D21"/>
</svg>