<svg xmlns="http://www.w3.org/2000/svg" width="150" height="58" viewBox="0 0 150 58" fill="none">
    <path d="M30.5703 29.4046C30.5703 27.3237 31.8127 25.8741 33.7114 25.8741C35.6101 25.8741 36.8524 27.3237 36.8524 29.4046C36.8524 31.4622 35.6101 32.9351 33.7114 32.9351C31.8127 32.9351 30.5703 31.4622 30.5703 29.4046Z" fill="#1D1D21"/>
    <path d="M46.6278 25.7806C44.8229 25.7806 43.604 27.1834 43.604 29.1007C43.604 31.0413 44.8463 32.4909 46.6278 32.4909C48.5968 32.4909 49.9095 31.0179 49.9095 29.1007C49.9095 27.2068 48.5968 25.7806 46.6278 25.7806Z" fill="#1D1D21"/>
    <path d="M57.0911 29.4046C57.0911 27.3237 58.3335 25.8741 60.2322 25.8741C62.1309 25.8741 63.3732 27.3237 63.3732 29.4046C63.3732 31.4622 62.1309 32.9351 60.2322 32.9351C58.3335 32.9351 57.0911 31.4622 57.0911 29.4046Z" fill="#1D1D21"/>
    <path d="M76.1934 29.428C76.1934 27.3471 77.4592 25.8975 79.4516 25.8975C81.4441 25.8975 82.6395 27.3705 82.6395 29.428C82.6395 31.4855 81.4441 32.9351 79.4516 32.9351C77.4592 32.9351 76.1934 31.5089 76.1934 29.428Z" fill="#1D1D21"/>
    <path fill-rule="evenodd" clip-rule="evenodd" d="M74.9999 53.8654C114.828 53.8654 147.115 42.5649 147.115 28.625C147.115 14.6851 114.828 3.38464 74.9999 3.38464C35.1717 3.38464 2.88452 14.6851 2.88452 28.625C2.88452 42.5649 35.1717 53.8654 74.9999 53.8654ZM25.9366 35.2031V17.8077H23.0768V35.2031H25.9366ZM27.6869 29.4046C27.6869 32.9585 30.0779 35.4837 33.7112 35.4837C37.3445 35.4837 39.7354 32.9585 39.7354 29.4046C39.7354 25.8507 37.3445 23.3256 33.7112 23.3256C30.0779 23.3256 27.6869 25.8507 27.6869 29.4046ZM46.1355 34.9693C42.8772 34.9693 40.6972 32.5377 40.6972 29.1708C40.6972 25.7806 42.9241 23.2788 46.2292 23.2788C47.9404 23.2788 49.3937 24.0037 50.0969 25.2195L50.261 23.6529H52.7926V34.6186C52.7926 38.4297 50.4017 40.8846 46.6512 40.8846C43.4632 40.8846 41.1426 38.9207 40.7676 35.9045H43.6508C43.8148 37.4243 45.0338 38.2894 46.8152 38.2894C48.8077 38.2894 50.0032 37.0268 50.0032 35.1329V33.169C49.2765 34.2912 47.8232 34.9693 46.1355 34.9693ZM54.2078 29.4046C54.2078 32.9585 56.5988 35.4837 60.2321 35.4837C63.8654 35.4837 66.2563 32.9585 66.2563 29.4046C66.2563 25.8507 63.8654 23.3256 60.2321 23.3256C56.5988 23.3256 54.2078 25.8507 54.2078 29.4046ZM71.0624 19.5847C71.0624 20.5433 70.2889 21.2915 69.3512 21.2915C68.3902 21.2915 67.6635 20.5433 67.6635 19.5847C67.6635 18.6494 68.3902 17.9012 69.3512 17.9012C70.2889 17.9012 71.0624 18.6494 71.0624 19.5847ZM70.7811 23.6529V35.2031H67.9214V23.6529H70.7811ZM73.2865 40.5573H76.076V33.6132C76.8026 34.8056 78.3731 35.507 80.1078 35.507C83.5301 35.507 85.5694 32.8884 85.5225 29.2877C85.4522 25.6637 83.366 23.3022 80.0843 23.3022C78.3263 23.3022 76.7323 24.0738 76.0291 25.4065L75.865 23.6529H73.2865V40.5573ZM90.8899 35.507C88.1239 35.507 86.3424 34.034 86.2487 31.7427H88.8506C88.8506 32.7481 89.5772 33.3326 90.843 33.3326C91.8979 33.3326 92.7652 32.9118 92.7652 31.9999C92.7652 31.3452 92.2963 30.9945 91.5462 30.7841L89.5304 30.2697C87.3035 29.6852 86.4362 28.446 86.4362 26.9496C86.4362 24.7518 88.288 23.3022 90.7727 23.3022C93.2808 23.3022 94.992 24.7518 95.0858 27.0432H92.4839C92.4839 26.0378 91.7806 25.4299 90.7024 25.4299C89.671 25.4299 89.0381 25.991 89.0381 26.786C89.0381 27.5342 89.6241 27.8381 90.4914 28.0719L92.5308 28.5629C94.4295 29.0305 95.4608 30.1528 95.4608 31.8129C95.4608 34.0574 93.609 35.507 90.8899 35.507ZM101.393 35.507C102.963 35.507 104.463 34.7822 105.143 33.7067L105.331 35.2031H108.003V23.6529H105.143V29.7086C105.143 31.7895 104.346 32.9585 102.471 32.9585C101.018 32.9585 100.01 32.2571 100.01 29.8723V23.6529H97.1498V30.8776C97.1498 33.6366 98.65 35.507 101.393 35.507ZM113.387 28.5629V35.2031H110.527V23.6529H113.152L113.293 24.9623C113.973 23.9335 115.192 23.3022 116.551 23.3022C118.473 23.3022 119.739 24.1439 120.372 25.5C120.935 24.1439 122.318 23.3022 124.076 23.3022C126.889 23.3022 128.365 24.9857 128.365 27.6511V35.2031H125.599V28.3057C125.599 26.6691 124.709 25.804 123.326 25.804C121.966 25.804 120.888 26.6925 120.888 28.5863V35.2031H118.098V28.3057C118.098 26.6691 117.208 25.804 115.848 25.804C114.489 25.804 113.387 26.6925 113.387 28.5629Z" fill="#1D1D21"/>
</svg>