<svg xmlns="http://www.w3.org/2000/svg" width="40" height="40" viewBox="0 0 40 40" fill="none">
    <path fill-rule="evenodd" clip-rule="evenodd" d="M9.68246 3.33337H30.3174C33.8239 3.33337 36.6666 6.17601 36.6666 9.68258V30.3175C36.6666 33.8241 33.8239 36.6667 30.3174 36.6667H9.68246C6.17589 36.6667 3.33325 33.8241 3.33325 30.3175V9.68258C3.33325 6.17601 6.17589 3.33337 9.68246 3.33337ZM30.3174 34.2858C32.509 34.2858 34.2856 32.5091 34.2856 30.3175V9.68258C34.2856 7.49097 32.509 5.71433 30.3174 5.71433H9.68246C7.49085 5.71433 5.7142 7.49097 5.7142 9.68258V30.3175C5.7142 32.5091 7.49085 34.2858 9.68246 34.2858H30.3174Z" fill="#39D048"/>
    <path d="M28.7301 14.8413H23.9682C23.3107 14.8413 22.7777 15.3743 22.7777 16.0318C22.7777 16.6893 23.3107 17.2223 23.9682 17.2223H25.4444L19.7936 22.8731L16.619 19.6985C15.7765 18.8589 14.4138 18.8589 13.5713 19.6985L9.42849 23.7143C8.96428 24.1791 8.96428 24.9321 9.42849 25.3969C9.65053 25.6217 9.95378 25.7476 10.2698 25.7461C10.5861 25.7494 10.89 25.6232 11.111 25.3969L15.0317 21.4762L18.2063 24.6508C19.0541 25.4922 20.4219 25.4922 21.2698 24.6508L27.4761 18.4445V20.7937C27.4761 21.4512 28.0091 21.9842 28.6666 21.9842C29.3241 21.9842 29.8571 21.4512 29.8571 20.7937V16.0318C29.8501 15.4015 29.3591 14.8827 28.7301 14.8413Z" fill="#39D048"/>
</svg>