<svg xmlns="http://www.w3.org/2000/svg" width="40" height="40" viewBox="0 0 40 40" fill="none">
    <path fill-rule="evenodd" clip-rule="evenodd" d="M11.6667 5H29.1667C32.8486 5 35.8333 7.98477 35.8333 11.6667V29.1667C35.8333 32.8486 32.8486 35.8333 29.1667 35.8333H11.6667C7.98477 35.8333 5 32.8486 5 29.1667V11.6667C5 7.98477 7.98477 5 11.6667 5ZM29.1667 33.3333C31.4679 33.3333 33.3333 31.4679 33.3333 29.1667V11.6667C33.3333 9.36548 31.4679 7.5 29.1667 7.5H11.6667C9.36548 7.5 7.5 9.36548 7.5 11.6667V29.1667C7.5 31.4679 9.36548 33.3333 11.6667 33.3333H29.1667Z" fill="#39D048"/>
    <path fill-rule="evenodd" clip-rule="evenodd" d="M28.1045 17.2334C28.3033 17.7107 28.7662 18.0248 29.2832 18.0332C29.6249 18.0287 29.954 18.1625 30.1957 18.4041C30.4373 18.6458 30.5711 18.9748 30.5666 19.3166V21.5166C30.5711 21.8583 30.4373 22.1873 30.1957 22.429C29.954 22.6707 29.6249 22.8044 29.2832 22.7999C28.7662 22.8083 28.3033 23.1224 28.1045 23.5997C27.9056 24.077 28.0085 24.6268 28.3666 24.9999C28.6078 25.2406 28.7433 25.5674 28.7433 25.9082C28.7433 26.249 28.6078 26.5758 28.3666 26.8166L26.8166 28.3666C26.5781 28.6119 26.2504 28.7504 25.9082 28.7504C25.566 28.7504 25.2384 28.6119 24.9999 28.3666C24.7586 28.1326 24.436 28.0012 24.0999 27.9999C23.7566 27.9954 23.4259 28.1287 23.1816 28.3698C22.9373 28.611 22.7999 28.94 22.7999 29.2832C22.8044 29.625 22.6707 29.954 22.429 30.1957C22.1873 30.4373 21.8583 30.5711 21.5166 30.5666H19.3166C18.9748 30.5711 18.6458 30.4373 18.4041 30.1957C18.1624 29.954 18.0287 29.625 18.0332 29.2832C18.0332 28.94 17.8958 28.611 17.6515 28.3698C17.4072 28.1287 17.0765 27.9954 16.7332 27.9999C16.3971 28.0012 16.0745 28.1326 15.8332 28.3666C15.5947 28.6119 15.2671 28.7504 14.9249 28.7504C14.5827 28.7504 14.2551 28.6119 14.0166 28.3666L12.4666 26.8166C12.2253 26.5758 12.0898 26.249 12.0898 25.9082C12.0898 25.5674 12.2253 25.2406 12.4666 24.9999C12.8246 24.6268 12.9275 24.077 12.7286 23.5997C12.5298 23.1224 12.0669 22.8083 11.5499 22.7999C11.2082 22.8044 10.8791 22.6707 10.6374 22.429C10.3958 22.1873 10.262 21.8583 10.2666 21.5166V19.3166C10.262 18.9748 10.3958 18.6458 10.6374 18.4041C10.8791 18.1625 11.2082 18.0287 11.5499 18.0332C12.0669 18.0248 12.5298 17.7107 12.7286 17.2334C12.9275 16.7561 12.8246 16.2063 12.4666 15.8332C12.2253 15.5925 12.0898 15.2657 12.0898 14.9249C12.0898 14.5841 12.2253 14.2573 12.4666 14.0166L14.0166 12.4666C14.2551 12.2212 14.5827 12.0827 14.9249 12.0827C15.2671 12.0827 15.5947 12.2212 15.8332 12.4666C16.0745 12.7005 16.3971 12.832 16.7332 12.8332C17.0765 12.8377 17.4072 12.7044 17.6515 12.4633C17.8958 12.2221 18.0332 11.8932 18.0332 11.5499C18.0287 11.2082 18.1624 10.8791 18.4041 10.6374C18.6458 10.3958 18.9748 10.262 19.3166 10.2666H21.5166C21.8583 10.262 22.1873 10.3958 22.429 10.6374C22.6707 10.8791 22.8044 11.2082 22.7999 11.5499C22.7999 11.8932 22.9373 12.2221 23.1816 12.4633C23.4259 12.7044 23.7566 12.8377 24.0999 12.8332C24.436 12.832 24.7586 12.7005 24.9999 12.4666C25.2384 12.2212 25.566 12.0827 25.9082 12.0827C26.2504 12.0827 26.5781 12.2212 26.8166 12.4666L28.3666 14.0166C28.6078 14.2573 28.7433 14.5841 28.7433 14.9249C28.7433 15.2657 28.6078 15.5925 28.3666 15.8332C28.0085 16.2063 27.9056 16.7561 28.1045 17.2334ZM25.7832 22.6499C26.2011 21.6392 27.0325 20.8563 28.0666 20.4999V20.4166C27.0325 20.0602 26.2011 19.2773 25.7832 18.2666C25.3648 17.262 25.4012 16.1256 25.8832 15.1499L25.7666 15.0332C25.2477 15.2871 24.6775 15.4183 24.0999 15.4166C22.4832 15.3716 21.0721 14.3083 20.5832 12.7666H20.4166C19.918 14.3369 18.4642 15.4071 16.8166 15.4166C16.239 15.4183 15.6687 15.2871 15.1499 15.0332L15.0332 15.1499C15.5152 16.1256 15.5517 17.262 15.1332 18.2666C14.7153 19.2773 13.8839 20.0602 12.8499 20.4166V20.4999C13.8839 20.8563 14.7153 21.6392 15.1332 22.6499C15.5517 23.6544 15.5152 24.7909 15.0332 25.7666L15.1499 25.8832C15.6687 25.6294 16.239 25.4982 16.8166 25.4999C18.442 25.4974 19.889 26.5291 20.4166 28.0666H20.4999C20.8529 27.0343 21.6325 26.2035 22.6403 25.7858C23.648 25.368 24.7868 25.4035 25.7666 25.8832L25.8832 25.7666C25.4012 24.7909 25.3648 23.6544 25.7832 22.6499Z" fill="#39D048"/>
    <path fill-rule="evenodd" clip-rule="evenodd" d="M16.8333 20.4167C16.8333 18.4376 18.4376 16.8333 20.4167 16.8333C22.3957 16.8333 24 18.4376 24 20.4167C24 22.3957 22.3957 24 20.4167 24C18.4376 24 16.8333 22.3957 16.8333 20.4167ZM19.3333 20.4167C19.3333 21.015 19.8184 21.5 20.4167 21.5C20.704 21.5 20.9795 21.3859 21.1827 21.1827C21.3859 20.9795 21.5 20.704 21.5 20.4167C21.5 19.8184 21.015 19.3333 20.4167 19.3333C19.8184 19.3333 19.3333 19.8184 19.3333 20.4167Z" fill="#39D048"/>
</svg>