<svg xmlns="http://www.w3.org/2000/svg" width="32" height="32" viewBox="0 0 32 32" fill="none">
    <path d="M4.37399 5.98805C5.81629 4.61411 7.73864 3.8586 9.73046 3.88289C11.7223 3.90718 13.6256 4.70935 15.034 6.11805L16 7.08505L16.86 6.22505C18.1111 4.97186 19.7563 4.18861 21.5178 4.00745C23.2793 3.82629 25.0494 4.25831 26.5294 5.23061C28.0095 6.20291 29.1088 7.65598 29.6419 9.34464C30.1751 11.0333 30.1094 12.8542 29.456 14.5H27.242C27.9313 13.3026 28.1617 11.8955 27.8903 10.5407C27.6188 9.18604 26.8641 7.97623 25.7667 7.13679C24.6693 6.29736 23.3042 5.88556 21.9256 5.97815C20.5471 6.07074 19.2493 6.6614 18.274 7.64005L16.707 9.20705C16.5195 9.39452 16.2652 9.49984 16 9.49984C15.7348 9.49984 15.4805 9.39452 15.293 9.20705L13.619 7.53305C12.6416 6.55202 11.3369 5.96556 9.9544 5.88576C8.57186 5.80596 7.20841 6.23842 6.12461 7.10048C5.04081 7.96254 4.31269 9.19375 4.0794 10.5588C3.84611 11.9238 4.12401 13.327 4.85999 14.5H2.60999C2.00327 13.0705 1.84699 11.4899 2.16199 9.96915C2.477 8.44844 3.24831 7.05997 4.37299 5.98905L4.37399 5.98805ZM22.708 19.4991H25.468L16.724 28.689C16.6301 28.7876 16.5171 28.866 16.3919 28.9194C16.2666 28.9727 16.1318 29 15.9957 28.9994C15.8596 28.9989 15.725 28.9705 15.6002 28.9161C15.4754 28.8617 15.3631 28.7824 15.27 28.6831L6.66199 19.4991H9.14299C9.22699 19.4991 9.30999 19.495 9.39199 19.487L16.006 26.543L22.708 19.4991ZM12.894 11.5521C12.8138 11.3918 12.6921 11.256 12.5415 11.1589C12.3908 11.0618 12.2169 11.0069 12.0378 11.0001C11.8587 10.9932 11.6811 11.0346 11.5235 11.1199C11.3659 11.2053 11.2342 11.3314 11.142 11.485L8.43399 15.999H2.66699C2.40178 15.999 2.14742 16.1044 1.95989 16.2919C1.77235 16.4795 1.66699 16.7338 1.66699 16.9991C1.66699 17.2643 1.77235 17.5186 1.95989 17.7062C2.14742 17.8937 2.40178 17.9991 2.66699 17.9991H8.99999C9.17255 17.999 9.34215 17.9543 9.49233 17.8693C9.6425 17.7844 9.76813 17.662 9.85699 17.514L11.92 14.076L15.106 20.446C15.1828 20.5996 15.2978 20.7308 15.44 20.827C15.5822 20.9232 15.7468 20.9812 15.9179 20.9953C16.0889 21.0095 16.2608 20.9794 16.4169 20.9079C16.573 20.8364 16.708 20.7259 16.809 20.587L20.18 15.951L22.36 17.767C22.5395 17.9172 22.766 17.9997 23 18H29C29.2652 18 29.5196 17.8947 29.7071 17.7072C29.8946 17.5196 30 17.2653 30 17C30 16.7348 29.8946 16.4805 29.7071 16.2929C29.5196 16.1054 29.2652 16 29 16H23.362L20.64 13.732C20.5348 13.6444 20.4128 13.5793 20.2815 13.5407C20.1502 13.5022 20.0123 13.491 19.8765 13.5078C19.7406 13.5247 19.6097 13.5693 19.4918 13.6388C19.3739 13.7084 19.2715 13.8013 19.191 13.912L16.159 18.0821L12.894 11.5521Z" fill="#39D048"/>
</svg>