<svg xmlns="http://www.w3.org/2000/svg" width="22" height="18" viewBox="0 0 22 18" fill="none">
    <path d="M18.9169 4.76053C18.9169 4.96337 18.9169 5.12564 18.9169 5.32848C18.9169 10.9674 14.6572 17.4177 6.82759 17.4177C4.39351 17.4177 2.16227 16.7281 0.296143 15.511C0.620687 15.5516 0.945231 15.5922 1.31034 15.5922C3.29818 15.5922 5.12374 14.9025 6.58419 13.7666C4.71806 13.726 3.1359 12.509 2.60852 10.8052C2.8925 10.8457 3.1359 10.8863 3.41988 10.8863C3.78499 10.8863 4.19067 10.8052 4.51522 10.724C2.56795 10.3183 1.1075 8.61449 1.1075 6.54552V6.50495C1.67546 6.8295 2.36511 6.99177 3.05477 7.03234C1.8783 6.26154 1.14807 4.96337 1.14807 3.50292C1.14807 2.69156 1.35091 1.96134 1.71602 1.35282C3.82556 3.9086 6.98987 5.61246 10.5193 5.8153C10.4381 5.49075 10.3976 5.16621 10.3976 4.84167C10.3976 2.48873 12.3043 0.582031 14.6572 0.582031C15.8743 0.582031 16.9696 1.06885 17.781 1.92077C18.714 1.71793 19.6471 1.35282 20.4584 0.866007C20.1339 1.88021 19.4848 2.69156 18.5923 3.21895C19.4442 3.13781 20.2962 2.8944 21.0264 2.56986C20.4584 3.42179 19.7282 4.15201 18.9169 4.76053Z" fill="#484851"/>
</svg>