<svg xmlns="http://www.w3.org/2000/svg" width="32" height="32" viewBox="0 0 32 32" fill="none">
    <path fill-rule="evenodd" clip-rule="evenodd" d="M28.16 8.6665C28.16 5.3528 25.4737 2.6665 22.16 2.6665H8.66666C5.35295 2.6665 2.66666 5.35279 2.66666 8.6665V22.1598C2.66666 25.4735 5.35294 28.1598 8.66665 28.1598H22.16C25.4737 28.1598 28.16 25.4736 28.16 22.1598V8.6665ZM8.34666 19.3065C8.53401 19.4941 8.7882 19.5996 9.05332 19.5998C9.31732 19.5941 9.56953 19.4894 9.75999 19.3065L15.4133 13.6398L21.0667 19.3065C21.4571 19.6964 22.0896 19.6964 22.48 19.3065C22.6706 19.1208 22.7781 18.866 22.7781 18.5998C22.7781 18.3337 22.6706 18.0789 22.48 17.8932L16.12 11.5198C15.9326 11.3322 15.6785 11.2267 15.4133 11.2265C15.1482 11.2267 14.894 11.3322 14.7067 11.5198L8.34666 17.8932C8.15606 18.0789 8.04856 18.3337 8.04856 18.5998C8.04856 18.866 8.15606 19.1208 8.34666 19.3065Z" fill="#484851"/>
</svg>