<svg xmlns="http://www.w3.org/2000/svg" width="40" height="40" viewBox="0 0 40 40" fill="none">
    <path fill-rule="evenodd" clip-rule="evenodd" d="M21.7167 9.09992C21.7077 9.78652 21.1533 10.3409 20.4667 10.3499C19.7801 10.3409 19.2257 9.78652 19.2167 9.09992V4.58325C19.2167 3.8929 19.7763 3.33325 20.4667 3.33325C21.157 3.33325 21.7167 3.8929 21.7167 4.58325V9.09992ZM20.5834 11.8832H20.4667C17.2832 11.8255 14.3452 13.5868 12.8958 16.4218C11.4464 19.2567 11.7391 22.6698 13.65 25.2165C15.3147 27.4441 16.2413 30.1363 16.3 32.9165C16.566 35.0152 18.3513 36.5884 20.4667 36.5884C22.5821 36.5884 24.3674 35.0152 24.6334 32.9165C24.545 30.2483 25.3745 27.6304 26.9834 25.4999C28.1189 24.0764 28.757 22.3203 28.8 20.4999C28.8572 15.8722 25.2085 12.0459 20.5834 11.8832ZM20.4667 11.8832L20.55 14.3832C22.7976 14.4169 24.8307 15.7248 25.7933 17.756C26.7558 19.7873 26.4805 22.1891 25.0834 23.9499C23.734 25.6954 22.8302 27.7433 22.45 29.9165H18.45C17.9487 27.6756 16.996 25.5604 15.65 23.6999C14.3711 21.8994 14.2048 19.5354 15.219 17.5736C16.2333 15.6118 18.2582 14.3807 20.4667 14.3832V11.8832ZM20.4667 34.5833C19.5462 34.5833 18.8 33.8371 18.8 32.9166V32.4833H22.2333V32.95C22.2251 33.4041 22.0319 33.8351 21.6984 34.1435C21.3649 34.4518 20.92 34.6106 20.4667 34.5833ZM32.65 8.11654C32.162 7.62912 31.3714 7.62912 30.8834 8.11654L27.7667 11.2165C27.2862 11.7139 27.2862 12.5025 27.7667 12.9999C28.2706 13.4637 29.0461 13.4637 29.55 12.9999L32.65 9.88321C33.1374 9.39518 33.1374 8.60457 32.65 8.11654ZM31.6667 18.3833H36.05C36.7404 18.3833 37.3 18.9429 37.3 19.6333C37.3 20.3237 36.7404 20.8833 36.05 20.8833H31.6667C30.9763 20.8833 30.4167 20.3237 30.4167 19.6333C30.4167 18.9429 30.9763 18.3833 31.6667 18.3833ZM8.96668 18.3833H4.58334C3.89299 18.3833 3.33334 18.9429 3.33334 19.6333C3.33334 20.3237 3.89299 20.8833 4.58334 20.8833H8.96668C9.65703 20.8833 10.2167 20.3237 10.2167 19.6333C10.2167 18.9429 9.65703 18.3833 8.96668 18.3833ZM13.3573 12.1084C13.3573 12.4437 13.2226 12.765 12.9834 13C12.7455 13.2269 12.4287 13.3524 12.1 13.35C11.7717 13.3507 11.4555 13.2254 11.2167 13L8.1167 9.88338C7.78228 9.57176 7.64462 9.10245 7.75773 8.65956C7.87083 8.21667 8.21667 7.87084 8.65955 7.75774C9.10244 7.64463 9.57175 7.78229 9.88337 8.11671L12.9834 11.2167C13.2226 11.4517 13.3573 11.773 13.3573 12.1084Z" fill="#39D048"/>
</svg>