<svg xmlns="http://www.w3.org/2000/svg" width="19" height="20" viewBox="0 0 19 20" fill="none">
    <path d="M9.10752 5.31422C11.6633 5.31422 13.7728 7.42375 13.7728 9.97954C13.7728 12.5759 11.6633 14.6448 9.10752 14.6448C6.51117 14.6448 4.4422 12.5759 4.4422 9.97954C4.4422 7.42375 6.51117 5.31422 9.10752 5.31422ZM9.10752 13.0221C10.7708 13.0221 12.1096 11.6834 12.1096 9.97954C12.1096 8.31625 10.7708 6.97751 9.10752 6.97751C7.40366 6.97751 6.06492 8.31625 6.06492 9.97954C6.06492 11.6834 7.44423 13.0221 9.10752 13.0221ZM15.0304 5.15195C15.0304 5.76047 14.5436 6.24728 13.9351 6.24728C13.3266 6.24728 12.8398 5.76047 12.8398 5.15195C12.8398 4.54343 13.3266 4.05661 13.9351 4.05661C14.5436 4.05661 15.0304 4.54343 15.0304 5.15195ZM18.1136 6.24728C18.1948 7.7483 18.1948 12.2513 18.1136 13.7524C18.0325 15.2128 17.7079 16.4704 16.6532 17.5657C15.5984 18.6205 14.3002 18.9451 12.8398 19.0262C11.3388 19.1073 6.83571 19.1073 5.33469 19.0262C3.87425 18.9451 2.61664 18.6205 1.5213 17.5657C0.466532 16.4704 0.141988 15.2128 0.060852 13.7524C-0.020284 12.2513 -0.020284 7.7483 0.060852 6.24728C0.141988 4.78684 0.466532 3.48866 1.5213 2.4339C2.61664 1.37913 3.87425 1.05459 5.33469 0.97345C6.83571 0.892314 11.3388 0.892314 12.8398 0.97345C14.3002 1.05459 15.5984 1.37913 16.6532 2.4339C17.7079 3.48866 18.0325 4.78684 18.1136 6.24728ZM16.1664 15.3345C16.6532 14.158 16.5315 11.3183 16.5315 9.97954C16.5315 8.68136 16.6532 5.8416 16.1664 4.62457C15.8418 3.85377 15.2333 3.20469 14.4625 2.92071C13.2455 2.4339 10.4057 2.5556 9.10752 2.5556C7.76877 2.5556 4.92901 2.4339 3.75254 2.92071C2.94118 3.24525 2.33266 3.85377 2.00812 4.62457C1.5213 5.8416 1.643 8.68136 1.643 9.97954C1.643 11.3183 1.5213 14.158 2.00812 15.3345C2.33266 16.1459 2.94118 16.7544 3.75254 17.0789C4.92901 17.5657 7.76877 17.444 9.10752 17.444C10.4057 17.444 13.2455 17.5657 14.4625 17.0789C15.2333 16.7544 15.8824 16.1459 16.1664 15.3345Z" fill="#484851"/>
</svg>