<svg xmlns="http://www.w3.org/2000/svg" width="40" height="40" viewBox="0 0 40 40" fill="none">
    <path d="M12.1177 27.7667H8.33437C6.90488 27.7303 5.77308 26.5464 5.80104 25.1167V13.4501C5.77308 12.0204 6.90488 10.8364 8.33437 10.8001H17.8344C18.5155 10.8001 19.0677 10.2479 19.0677 9.56672C19.0677 8.88557 18.5155 8.33339 17.8344 8.33339H8.33437C6.98782 8.33302 5.69805 8.87579 4.75694 9.83886C3.81583 10.8019 3.30295 12.1039 3.33437 13.4501V25.1167C3.30295 26.4629 3.81583 27.7649 4.75694 28.7279C5.69805 29.691 6.98782 30.2338 8.33437 30.2334H12.1177C12.7989 30.2334 13.351 29.6812 13.351 29.0001C13.351 28.3189 12.7989 27.7667 12.1177 27.7667Z" fill="#39D048"/>
    <path fill-rule="evenodd" clip-rule="evenodd" d="M32.2344 13.0334H32.8344C34.4113 13.0055 35.7146 14.2566 35.751 15.8334V22.7334C35.7146 24.3101 34.4113 25.5613 32.8344 25.5334H32.2177C32.0588 28.177 29.8661 30.2382 27.2177 30.2334H19.6677C18.9866 30.2334 18.4344 29.6812 18.4344 29.0001C18.4344 28.3189 18.9866 27.7667 19.6677 27.7667H27.2177C28.6472 27.7303 29.779 26.5464 29.751 25.1167V13.45C29.779 12.0204 28.6472 10.8364 27.2177 10.8H25.3344C24.6532 10.8 24.101 10.2479 24.101 9.56672C24.101 8.88556 24.6532 8.33338 25.3344 8.33338H27.2344C29.8828 8.32861 32.0755 10.3898 32.2344 13.0334ZM32.8344 23.0334C33.0677 23.0334 33.251 22.8834 33.251 22.7334V15.8334C33.251 15.6834 33.0677 15.5334 32.8344 15.5334H32.2844V23.0334H32.8344Z" fill="#39D048"/>
    <path d="M24.6677 19.1667C24.3646 18.4137 23.6457 17.9105 22.8344 17.8834H16.1677L23.0844 10.9501C23.6156 10.3957 23.6156 9.52112 23.0844 8.96672C22.8217 8.70312 22.4648 8.55495 22.0927 8.55495C21.7206 8.55495 21.3637 8.70312 21.101 8.96672L13.001 17.1167C12.3941 17.715 12.2128 18.6225 12.5432 19.408C12.8735 20.1936 13.649 20.6987 14.501 20.6834H21.0677L14.151 27.6167C13.8874 27.8794 13.7393 28.2362 13.7393 28.6084C13.7393 28.9805 13.8874 29.3374 14.151 29.6001C14.4115 29.8604 14.7661 30.0047 15.1344 30.0001C15.502 30.001 15.8551 29.8573 16.1177 29.6001L24.2177 21.5001C24.8401 20.8925 25.0195 19.9622 24.6677 19.1667Z" fill="#39D048"/>
</svg>